<svg width="734" height="496" viewBox="0 0 734 496" fill="none" xmlns="http://www.w3.org/2000/svg">
<g clip-path="url(#clip0_3_1285)">
<rect width="734" height="496" rx="30" fill="#161616"/>
<path d="M239.773 63V43.4H247.641C249.676 43.4 251.225 43.876 252.289 44.828C253.372 45.7613 253.913 46.9653 253.913 48.44C253.913 49.672 253.577 50.6613 252.905 51.408C252.252 52.136 251.449 52.6307 250.497 52.892C251.617 53.116 252.541 53.676 253.269 54.572C253.997 55.4493 254.361 56.476 254.361 57.652C254.361 59.2013 253.801 60.48 252.681 61.488C251.561 62.496 249.974 63 247.921 63H239.773ZM243.357 51.632H247.109C248.117 51.632 248.892 51.3987 249.433 50.932C249.974 50.4653 250.245 49.8027 250.245 48.944C250.245 48.1227 249.974 47.4787 249.433 47.012C248.91 46.5267 248.117 46.284 247.053 46.284H243.357V51.632ZM243.357 60.088H247.361C248.425 60.088 249.246 59.8453 249.825 59.36C250.422 58.856 250.721 58.156 250.721 57.26C250.721 56.3453 250.413 55.6267 249.797 55.104C249.181 54.5813 248.35 54.32 247.305 54.32H243.357V60.088ZM264.017 63.336C262.673 63.336 261.46 63.028 260.377 62.412C259.313 61.796 258.464 60.9467 257.829 59.864C257.213 58.7627 256.905 57.4933 256.905 56.056C256.905 54.6187 257.223 53.3587 257.857 52.276C258.492 51.1747 259.341 50.316 260.405 49.7C261.488 49.084 262.701 48.776 264.045 48.776C265.371 48.776 266.565 49.084 267.629 49.7C268.712 50.316 269.561 51.1747 270.177 52.276C270.812 53.3587 271.129 54.6187 271.129 56.056C271.129 57.4933 270.812 58.7627 270.177 59.864C269.561 60.9467 268.712 61.796 267.629 62.412C266.547 63.028 265.343 63.336 264.017 63.336ZM264.017 60.228C264.951 60.228 265.763 59.8827 266.453 59.192C267.144 58.4827 267.489 57.4373 267.489 56.056C267.489 54.6747 267.144 53.6387 266.453 52.948C265.763 52.2387 264.96 51.884 264.045 51.884C263.093 51.884 262.272 52.2387 261.581 52.948C260.909 53.6387 260.573 54.6747 260.573 56.056C260.573 57.4373 260.909 58.4827 261.581 59.192C262.272 59.8827 263.084 60.228 264.017 60.228ZM280.998 63.336C279.654 63.336 278.44 63.028 277.358 62.412C276.294 61.796 275.444 60.9467 274.81 59.864C274.194 58.7627 273.886 57.4933 273.886 56.056C273.886 54.6187 274.203 53.3587 274.838 52.276C275.472 51.1747 276.322 50.316 277.386 49.7C278.468 49.084 279.682 48.776 281.026 48.776C282.351 48.776 283.546 49.084 284.61 49.7C285.692 50.316 286.542 51.1747 287.158 52.276C287.792 53.3587 288.11 54.6187 288.11 56.056C288.11 57.4933 287.792 58.7627 287.158 59.864C286.542 60.9467 285.692 61.796 284.61 62.412C283.527 63.028 282.323 63.336 280.998 63.336ZM280.998 60.228C281.931 60.228 282.743 59.8827 283.434 59.192C284.124 58.4827 284.47 57.4373 284.47 56.056C284.47 54.6747 284.124 53.6387 283.434 52.948C282.743 52.2387 281.94 51.884 281.026 51.884C280.074 51.884 279.252 52.2387 278.562 52.948C277.89 53.6387 277.554 54.6747 277.554 56.056C277.554 57.4373 277.89 58.4827 278.562 59.192C279.252 59.8827 280.064 60.228 280.998 60.228ZM297.054 63.336C295.822 63.336 294.739 63.14 293.806 62.748C292.873 62.3373 292.126 61.7773 291.566 61.068C291.006 60.3587 290.67 59.5373 290.558 58.604H294.17C294.282 59.1453 294.581 59.612 295.066 60.004C295.57 60.3773 296.214 60.564 296.998 60.564C297.782 60.564 298.351 60.4053 298.706 60.088C299.079 59.7707 299.266 59.4067 299.266 58.996C299.266 58.3987 299.005 57.9973 298.482 57.792C297.959 57.568 297.231 57.3533 296.298 57.148C295.701 57.0173 295.094 56.8587 294.478 56.672C293.862 56.4853 293.293 56.252 292.77 55.972C292.266 55.6733 291.855 55.3 291.538 54.852C291.221 54.3853 291.062 53.816 291.062 53.144C291.062 51.912 291.547 50.876 292.518 50.036C293.507 49.196 294.889 48.776 296.662 48.776C298.305 48.776 299.611 49.1587 300.582 49.924C301.571 50.6893 302.159 51.744 302.346 53.088H298.958C298.753 52.0613 297.978 51.548 296.634 51.548C295.962 51.548 295.439 51.6787 295.066 51.94C294.711 52.2013 294.534 52.528 294.534 52.92C294.534 53.3307 294.805 53.6573 295.346 53.9C295.887 54.1427 296.606 54.3667 297.502 54.572C298.473 54.796 299.359 55.048 300.162 55.328C300.983 55.5893 301.637 55.9907 302.122 56.532C302.607 57.0547 302.85 57.8107 302.85 58.8C302.869 59.6587 302.645 60.4333 302.178 61.124C301.711 61.8147 301.039 62.356 300.162 62.748C299.285 63.14 298.249 63.336 297.054 63.336ZM311.776 63C310.32 63 309.153 62.6453 308.276 61.936C307.398 61.2267 306.96 59.9667 306.96 58.156V52.108H304.58V49.112H306.96L307.38 45.388H310.544V49.112H314.296V52.108H310.544V58.184C310.544 58.856 310.684 59.3227 310.964 59.584C311.262 59.8267 311.766 59.948 312.476 59.948H314.212V63H311.776ZM319.305 46.956C318.651 46.956 318.11 46.76 317.681 46.368C317.27 45.976 317.065 45.4813 317.065 44.884C317.065 44.2867 317.27 43.8013 317.681 43.428C318.11 43.036 318.651 42.84 319.305 42.84C319.958 42.84 320.49 43.036 320.901 43.428C321.33 43.8013 321.545 44.2867 321.545 44.884C321.545 45.4813 321.33 45.976 320.901 46.368C320.49 46.76 319.958 46.956 319.305 46.956ZM317.513 63V49.112H321.097V63H317.513ZM324.838 63V49.112H328.002L328.282 51.464C328.711 50.6427 329.327 49.9893 330.13 49.504C330.951 49.0187 331.912 48.776 333.014 48.776C334.731 48.776 336.066 49.3173 337.018 50.4C337.97 51.4827 338.446 53.0693 338.446 55.16V63H334.862V55.496C334.862 54.3013 334.619 53.3867 334.134 52.752C333.648 52.1173 332.892 51.8 331.866 51.8C330.858 51.8 330.027 52.1547 329.374 52.864C328.739 53.5733 328.422 54.5627 328.422 55.832V63H324.838ZM347.753 58.856C347.081 58.856 346.455 58.7813 345.877 58.632L344.841 59.668C345.158 59.836 345.587 59.976 346.129 60.088C346.67 60.2 347.547 60.312 348.761 60.424C350.609 60.592 351.953 61.0307 352.793 61.74C353.633 62.4493 354.053 63.4293 354.053 64.68C354.053 65.5013 353.829 66.276 353.381 67.004C352.933 67.7507 352.242 68.348 351.309 68.796C350.375 69.2627 349.181 69.496 347.725 69.496C345.746 69.496 344.15 69.1227 342.937 68.376C341.723 67.648 341.117 66.5467 341.117 65.072C341.117 63.8213 341.723 62.7387 342.937 61.824C342.563 61.656 342.237 61.4787 341.957 61.292C341.695 61.1053 341.462 60.9093 341.257 60.704V60.06L343.693 57.484C342.61 56.532 342.069 55.3093 342.069 53.816C342.069 52.8827 342.293 52.0333 342.741 51.268C343.207 50.5027 343.861 49.896 344.701 49.448C345.541 49 346.558 48.776 347.753 48.776C348.537 48.776 349.265 48.888 349.937 49.112H355.201V51.296L352.821 51.464C353.194 52.1733 353.381 52.9573 353.381 53.816C353.381 54.7493 353.157 55.5987 352.709 56.364C352.261 57.1293 351.607 57.736 350.749 58.184C349.909 58.632 348.91 58.856 347.753 58.856ZM347.753 56.112C348.481 56.112 349.078 55.916 349.545 55.524C350.03 55.132 350.273 54.572 350.273 53.844C350.273 53.116 350.03 52.556 349.545 52.164C349.078 51.772 348.481 51.576 347.753 51.576C346.987 51.576 346.371 51.772 345.905 52.164C345.438 52.556 345.205 53.116 345.205 53.844C345.205 54.572 345.438 55.132 345.905 55.524C346.371 55.916 346.987 56.112 347.753 56.112ZM344.393 64.708C344.393 65.3987 344.71 65.912 345.345 66.248C345.998 66.6027 346.791 66.78 347.725 66.78C348.621 66.78 349.349 66.5933 349.909 66.22C350.469 65.8653 350.749 65.38 350.749 64.764C350.749 64.26 350.562 63.84 350.189 63.504C349.834 63.168 349.115 62.9627 348.033 62.888C347.267 62.832 346.558 62.748 345.905 62.636C345.363 62.9347 344.971 63.2613 344.729 63.616C344.505 63.9707 344.393 64.3347 344.393 64.708ZM364.57 63V43.4H372.438C374.473 43.4 376.022 43.876 377.086 44.828C378.169 45.7613 378.71 46.9653 378.71 48.44C378.71 49.672 378.374 50.6613 377.702 51.408C377.049 52.136 376.246 52.6307 375.294 52.892C376.414 53.116 377.338 53.676 378.066 54.572C378.794 55.4493 379.158 56.476 379.158 57.652C379.158 59.2013 378.598 60.48 377.478 61.488C376.358 62.496 374.771 63 372.718 63H364.57ZM368.154 51.632H371.906C372.914 51.632 373.689 51.3987 374.23 50.932C374.771 50.4653 375.042 49.8027 375.042 48.944C375.042 48.1227 374.771 47.4787 374.23 47.012C373.707 46.5267 372.914 46.284 371.85 46.284H368.154V51.632ZM368.154 60.088H372.158C373.222 60.088 374.043 59.8453 374.622 59.36C375.219 58.856 375.518 58.156 375.518 57.26C375.518 56.3453 375.21 55.6267 374.594 55.104C373.978 54.5813 373.147 54.32 372.102 54.32H368.154V60.088ZM387.358 63.336C385.622 63.336 384.278 62.7947 383.326 61.712C382.393 60.6293 381.926 59.0427 381.926 56.952V49.112H385.482V56.616C385.482 57.8107 385.725 58.7253 386.21 59.36C386.695 59.9947 387.461 60.312 388.506 60.312C389.495 60.312 390.307 59.9573 390.942 59.248C391.595 58.5387 391.922 57.5493 391.922 56.28V49.112H395.506V63H392.342L392.062 60.648C391.633 61.4693 391.007 62.1227 390.186 62.608C389.383 63.0933 388.441 63.336 387.358 63.336ZM404.925 63.336C403.693 63.336 402.611 63.14 401.677 62.748C400.744 62.3373 399.997 61.7773 399.437 61.068C398.877 60.3587 398.541 59.5373 398.429 58.604H402.041C402.153 59.1453 402.452 59.612 402.937 60.004C403.441 60.3773 404.085 60.564 404.869 60.564C405.653 60.564 406.223 60.4053 406.577 60.088C406.951 59.7707 407.137 59.4067 407.137 58.996C407.137 58.3987 406.876 57.9973 406.353 57.792C405.831 57.568 405.103 57.3533 404.169 57.148C403.572 57.0173 402.965 56.8587 402.349 56.672C401.733 56.4853 401.164 56.252 400.641 55.972C400.137 55.6733 399.727 55.3 399.409 54.852C399.092 54.3853 398.933 53.816 398.933 53.144C398.933 51.912 399.419 50.876 400.389 50.036C401.379 49.196 402.76 48.776 404.533 48.776C406.176 48.776 407.483 49.1587 408.453 49.924C409.443 50.6893 410.031 51.744 410.217 53.088H406.829C406.624 52.0613 405.849 51.548 404.505 51.548C403.833 51.548 403.311 51.6787 402.937 51.94C402.583 52.2013 402.405 52.528 402.405 52.92C402.405 53.3307 402.676 53.6573 403.217 53.9C403.759 54.1427 404.477 54.3667 405.373 54.572C406.344 54.796 407.231 55.048 408.033 55.328C408.855 55.5893 409.508 55.9907 409.993 56.532C410.479 57.0547 410.721 57.8107 410.721 58.8C410.74 59.6587 410.516 60.4333 410.049 61.124C409.583 61.8147 408.911 62.356 408.033 62.748C407.156 63.14 406.12 63.336 404.925 63.336ZM415.828 46.956C415.175 46.956 414.634 46.76 414.204 46.368C413.794 45.976 413.588 45.4813 413.588 44.884C413.588 44.2867 413.794 43.8013 414.204 43.428C414.634 43.036 415.175 42.84 415.828 42.84C416.482 42.84 417.014 43.036 417.424 43.428C417.854 43.8013 418.068 44.2867 418.068 44.884C418.068 45.4813 417.854 45.976 417.424 46.368C417.014 46.76 416.482 46.956 415.828 46.956ZM414.036 63V49.112H417.62V63H414.036ZM421.361 63V49.112H424.525L424.805 51.464C425.234 50.6427 425.85 49.9893 426.653 49.504C427.474 49.0187 428.436 48.776 429.537 48.776C431.254 48.776 432.589 49.3173 433.541 50.4C434.493 51.4827 434.969 53.0693 434.969 55.16V63H431.385V55.496C431.385 54.3013 431.142 53.3867 430.657 52.752C430.172 52.1173 429.416 51.8 428.389 51.8C427.381 51.8 426.55 52.1547 425.897 52.864C425.262 53.5733 424.945 54.5627 424.945 55.832V63H421.361ZM445.144 63.336C443.744 63.336 442.503 63.0373 441.42 62.44C440.338 61.8427 439.488 61.0027 438.872 59.92C438.256 58.8373 437.948 57.5867 437.948 56.168C437.948 54.7307 438.247 53.452 438.844 52.332C439.46 51.212 440.3 50.344 441.364 49.728C442.447 49.0933 443.716 48.776 445.172 48.776C446.535 48.776 447.739 49.0747 448.784 49.672C449.83 50.2693 450.642 51.0907 451.22 52.136C451.818 53.1627 452.116 54.3107 452.116 55.58C452.116 55.7853 452.107 56 452.088 56.224C452.088 56.448 452.079 56.6813 452.06 56.924H441.504C441.579 58.0067 441.952 58.856 442.624 59.472C443.315 60.088 444.146 60.396 445.116 60.396C445.844 60.396 446.451 60.2373 446.936 59.92C447.44 59.584 447.814 59.1547 448.056 58.632H451.696C451.435 59.5093 450.996 60.312 450.38 61.04C449.783 61.7493 449.036 62.3093 448.14 62.72C447.263 63.1307 446.264 63.336 445.144 63.336ZM445.172 51.688C444.295 51.688 443.52 51.94 442.848 52.444C442.176 52.9293 441.747 53.676 441.56 54.684H448.476C448.42 53.7693 448.084 53.0413 447.468 52.5C446.852 51.9587 446.087 51.688 445.172 51.688ZM460.871 63.336C459.639 63.336 458.556 63.14 457.623 62.748C456.689 62.3373 455.943 61.7773 455.383 61.068C454.823 60.3587 454.487 59.5373 454.375 58.604H457.987C458.099 59.1453 458.397 59.612 458.883 60.004C459.387 60.3773 460.031 60.564 460.815 60.564C461.599 60.564 462.168 60.4053 462.523 60.088C462.896 59.7707 463.083 59.4067 463.083 58.996C463.083 58.3987 462.821 57.9973 462.299 57.792C461.776 57.568 461.048 57.3533 460.115 57.148C459.517 57.0173 458.911 56.8587 458.295 56.672C457.679 56.4853 457.109 56.252 456.587 55.972C456.083 55.6733 455.672 55.3 455.355 54.852C455.037 54.3853 454.879 53.816 454.879 53.144C454.879 51.912 455.364 50.876 456.335 50.036C457.324 49.196 458.705 48.776 460.479 48.776C462.121 48.776 463.428 49.1587 464.399 49.924C465.388 50.6893 465.976 51.744 466.163 53.088H462.775C462.569 52.0613 461.795 51.548 460.451 51.548C459.779 51.548 459.256 51.6787 458.883 51.94C458.528 52.2013 458.351 52.528 458.351 52.92C458.351 53.3307 458.621 53.6573 459.163 53.9C459.704 54.1427 460.423 54.3667 461.319 54.572C462.289 54.796 463.176 55.048 463.979 55.328C464.8 55.5893 465.453 55.9907 465.939 56.532C466.424 57.0547 466.667 57.8107 466.667 58.8C466.685 59.6587 466.461 60.4333 465.995 61.124C465.528 61.8147 464.856 62.356 463.979 62.748C463.101 63.14 462.065 63.336 460.871 63.336ZM475.581 63.336C474.349 63.336 473.267 63.14 472.333 62.748C471.4 62.3373 470.653 61.7773 470.093 61.068C469.533 60.3587 469.197 59.5373 469.085 58.604H472.697C472.809 59.1453 473.108 59.612 473.593 60.004C474.097 60.3773 474.741 60.564 475.525 60.564C476.309 60.564 476.879 60.4053 477.233 60.088C477.607 59.7707 477.793 59.4067 477.793 58.996C477.793 58.3987 477.532 57.9973 477.009 57.792C476.487 57.568 475.759 57.3533 474.825 57.148C474.228 57.0173 473.621 56.8587 473.005 56.672C472.389 56.4853 471.82 56.252 471.297 55.972C470.793 55.6733 470.383 55.3 470.065 54.852C469.748 54.3853 469.589 53.816 469.589 53.144C469.589 51.912 470.075 50.876 471.045 50.036C472.035 49.196 473.416 48.776 475.189 48.776C476.832 48.776 478.139 49.1587 479.109 49.924C480.099 50.6893 480.687 51.744 480.873 53.088H477.485C477.28 52.0613 476.505 51.548 475.161 51.548C474.489 51.548 473.967 51.6787 473.593 51.94C473.239 52.2013 473.061 52.528 473.061 52.92C473.061 53.3307 473.332 53.6573 473.873 53.9C474.415 54.1427 475.133 54.3667 476.029 54.572C477 54.796 477.887 55.048 478.689 55.328C479.511 55.5893 480.164 55.9907 480.649 56.532C481.135 57.0547 481.377 57.8107 481.377 58.8C481.396 59.6587 481.172 60.4333 480.705 61.124C480.239 61.8147 479.567 62.356 478.689 62.748C477.812 63.14 476.776 63.336 475.581 63.336ZM486.092 63.196C485.439 63.196 484.898 62.9907 484.468 62.58C484.058 62.1693 483.852 61.6747 483.852 61.096C483.852 60.4987 484.058 59.9947 484.468 59.584C484.898 59.1733 485.439 58.968 486.092 58.968C486.746 58.968 487.278 59.1733 487.688 59.584C488.118 59.9947 488.332 60.4987 488.332 61.096C488.332 61.6747 488.118 62.1693 487.688 62.58C487.278 62.9907 486.746 63.196 486.092 63.196ZM229.544 105V88.284H223.832V85.4H238.868V88.284H233.128V105H229.544ZM245.588 105.336C244.244 105.336 243.03 105.028 241.948 104.412C240.884 103.796 240.034 102.947 239.4 101.864C238.784 100.763 238.476 99.4933 238.476 98.056C238.476 96.6187 238.793 95.3587 239.428 94.276C240.062 93.1747 240.912 92.316 241.976 91.7C243.058 91.084 244.272 90.776 245.616 90.776C246.941 90.776 248.136 91.084 249.2 91.7C250.282 92.316 251.132 93.1747 251.748 94.276C252.382 95.3587 252.7 96.6187 252.7 98.056C252.7 99.4933 252.382 100.763 251.748 101.864C251.132 102.947 250.282 103.796 249.2 104.412C248.117 105.028 246.913 105.336 245.588 105.336ZM245.588 102.228C246.521 102.228 247.333 101.883 248.024 101.192C248.714 100.483 249.06 99.4373 249.06 98.056C249.06 96.6747 248.714 95.6387 248.024 94.948C247.333 94.2387 246.53 93.884 245.616 93.884C244.664 93.884 243.842 94.2387 243.152 94.948C242.48 95.6387 242.144 96.6747 242.144 98.056C242.144 99.4373 242.48 100.483 243.152 101.192C243.842 101.883 244.654 102.228 245.588 102.228ZM262.288 105.336C260.981 105.336 259.815 105.019 258.788 104.384C257.761 103.749 256.949 102.881 256.352 101.78C255.755 100.679 255.456 99.428 255.456 98.028C255.456 96.628 255.755 95.3867 256.352 94.304C256.949 93.2027 257.761 92.344 258.788 91.728C259.815 91.0933 260.981 90.776 262.288 90.776C263.333 90.776 264.248 90.972 265.032 91.364C265.816 91.756 266.451 92.3067 266.936 93.016V84.84H270.52V105H267.328L266.936 103.012C266.488 103.628 265.891 104.169 265.144 104.636C264.416 105.103 263.464 105.336 262.288 105.336ZM263.044 102.2C264.201 102.2 265.144 101.817 265.872 101.052C266.619 100.268 266.992 99.2693 266.992 98.056C266.992 96.8427 266.619 95.8533 265.872 95.088C265.144 94.304 264.201 93.912 263.044 93.912C261.905 93.912 260.963 94.2947 260.216 95.06C259.469 95.8253 259.096 96.8147 259.096 98.028C259.096 99.2413 259.469 100.24 260.216 101.024C260.963 101.808 261.905 102.2 263.044 102.2ZM278.958 105.336C277.763 105.336 276.783 105.149 276.018 104.776C275.252 104.384 274.683 103.871 274.31 103.236C273.936 102.601 273.75 101.901 273.75 101.136C273.75 99.848 274.254 98.8027 275.262 98C276.27 97.1973 277.782 96.796 279.798 96.796H283.326V96.46C283.326 95.508 283.055 94.808 282.514 94.36C281.972 93.912 281.3 93.688 280.498 93.688C279.77 93.688 279.135 93.8653 278.594 94.22C278.052 94.556 277.716 95.06 277.586 95.732H274.086C274.179 94.724 274.515 93.8467 275.094 93.1C275.691 92.3533 276.456 91.784 277.39 91.392C278.323 90.9813 279.368 90.776 280.526 90.776C282.504 90.776 284.063 91.2707 285.202 92.26C286.34 93.2493 286.91 94.6493 286.91 96.46V105H283.858L283.522 102.76C283.111 103.507 282.532 104.123 281.786 104.608C281.058 105.093 280.115 105.336 278.958 105.336ZM279.77 102.536C280.796 102.536 281.59 102.2 282.15 101.528C282.728 100.856 283.092 100.025 283.242 99.036H280.19C279.238 99.036 278.556 99.2133 278.146 99.568C277.735 99.904 277.53 100.324 277.53 100.828C277.53 101.369 277.735 101.789 278.146 102.088C278.556 102.387 279.098 102.536 279.77 102.536ZM291.601 111.16L294.821 104.076H293.981L288.577 91.112H292.469L296.361 100.884L300.421 91.112H304.229L295.409 111.16H291.601ZM318.032 105.336C316.837 105.336 315.857 105.149 315.092 104.776C314.326 104.384 313.757 103.871 313.384 103.236C313.01 102.601 312.824 101.901 312.824 101.136C312.824 99.848 313.328 98.8027 314.336 98C315.344 97.1973 316.856 96.796 318.872 96.796H322.4V96.46C322.4 95.508 322.129 94.808 321.588 94.36C321.046 93.912 320.374 93.688 319.572 93.688C318.844 93.688 318.209 93.8653 317.668 94.22C317.126 94.556 316.79 95.06 316.66 95.732H313.16C313.253 94.724 313.589 93.8467 314.168 93.1C314.765 92.3533 315.53 91.784 316.464 91.392C317.397 90.9813 318.442 90.776 319.6 90.776C321.578 90.776 323.137 91.2707 324.276 92.26C325.414 93.2493 325.984 94.6493 325.984 96.46V105H322.932L322.596 102.76C322.185 103.507 321.606 104.123 320.86 104.608C320.132 105.093 319.189 105.336 318.032 105.336ZM318.844 102.536C319.87 102.536 320.664 102.2 321.224 101.528C321.802 100.856 322.166 100.025 322.316 99.036H319.264C318.312 99.036 317.63 99.2133 317.22 99.568C316.809 99.904 316.604 100.324 316.604 100.828C316.604 101.369 316.809 101.789 317.22 102.088C317.63 102.387 318.172 102.536 318.844 102.536ZM329.404 105V91.112H332.568L332.848 93.464C333.277 92.6427 333.893 91.9893 334.696 91.504C335.517 91.0187 336.479 90.776 337.58 90.776C339.297 90.776 340.632 91.3173 341.584 92.4C342.536 93.4827 343.012 95.0693 343.012 97.16V105H339.428V97.496C339.428 96.3013 339.185 95.3867 338.7 94.752C338.215 94.1173 337.459 93.8 336.432 93.8C335.424 93.8 334.593 94.1547 333.94 94.864C333.305 95.5733 332.988 96.5627 332.988 97.832V105H329.404ZM352.823 105.336C351.516 105.336 350.35 105.019 349.323 104.384C348.296 103.749 347.484 102.881 346.887 101.78C346.29 100.679 345.991 99.428 345.991 98.028C345.991 96.628 346.29 95.3867 346.887 94.304C347.484 93.2027 348.296 92.344 349.323 91.728C350.35 91.0933 351.516 90.776 352.823 90.776C353.868 90.776 354.783 90.972 355.567 91.364C356.351 91.756 356.986 92.3067 357.471 93.016V84.84H361.055V105H357.863L357.471 103.012C357.023 103.628 356.426 104.169 355.679 104.636C354.951 105.103 353.999 105.336 352.823 105.336ZM353.579 102.2C354.736 102.2 355.679 101.817 356.407 101.052C357.154 100.268 357.527 99.2693 357.527 98.056C357.527 96.8427 357.154 95.8533 356.407 95.088C355.679 94.304 354.736 93.912 353.579 93.912C352.44 93.912 351.498 94.2947 350.751 95.06C350.004 95.8253 349.631 96.8147 349.631 98.028C349.631 99.2413 350.004 100.24 350.751 101.024C351.498 101.808 352.44 102.2 353.579 102.2ZM376.025 105V88.284H370.313V85.4H385.349V88.284H379.609V105H376.025ZM392.068 105.336C390.724 105.336 389.511 105.028 388.428 104.412C387.364 103.796 386.515 102.947 385.88 101.864C385.264 100.763 384.956 99.4933 384.956 98.056C384.956 96.6187 385.273 95.3587 385.908 94.276C386.543 93.1747 387.392 92.316 388.456 91.7C389.539 91.084 390.752 90.776 392.096 90.776C393.421 90.776 394.616 91.084 395.68 91.7C396.763 92.316 397.612 93.1747 398.228 94.276C398.863 95.3587 399.18 96.6187 399.18 98.056C399.18 99.4933 398.863 100.763 398.228 101.864C397.612 102.947 396.763 103.796 395.68 104.412C394.597 105.028 393.393 105.336 392.068 105.336ZM392.068 102.228C393.001 102.228 393.813 101.883 394.504 101.192C395.195 100.483 395.54 99.4373 395.54 98.056C395.54 96.6747 395.195 95.6387 394.504 94.948C393.813 94.2387 393.011 93.884 392.096 93.884C391.144 93.884 390.323 94.2387 389.632 94.948C388.96 95.6387 388.624 96.6747 388.624 98.056C388.624 99.4373 388.96 100.483 389.632 101.192C390.323 101.883 391.135 102.228 392.068 102.228ZM402.384 105V91.112H405.548L405.856 92.988C406.304 92.316 406.892 91.784 407.62 91.392C408.367 90.9813 409.226 90.776 410.196 90.776C412.343 90.776 413.864 91.6067 414.76 93.268C415.264 92.5027 415.936 91.896 416.776 91.448C417.635 91 418.568 90.776 419.576 90.776C421.387 90.776 422.778 91.3173 423.748 92.4C424.719 93.4827 425.204 95.0693 425.204 97.16V105H421.62V97.496C421.62 96.3013 421.387 95.3867 420.92 94.752C420.472 94.1173 419.772 93.8 418.82 93.8C417.85 93.8 417.066 94.1547 416.468 94.864C415.89 95.5733 415.6 96.5627 415.6 97.832V105H412.016V97.496C412.016 96.3013 411.783 95.3867 411.316 94.752C410.85 94.1173 410.131 93.8 409.16 93.8C408.208 93.8 407.434 94.1547 406.836 94.864C406.258 95.5733 405.968 96.5627 405.968 97.832V105H402.384ZM435.271 105.336C433.927 105.336 432.714 105.028 431.631 104.412C430.567 103.796 429.718 102.947 429.083 101.864C428.467 100.763 428.159 99.4933 428.159 98.056C428.159 96.6187 428.476 95.3587 429.111 94.276C429.746 93.1747 430.595 92.316 431.659 91.7C432.742 91.084 433.955 90.776 435.299 90.776C436.624 90.776 437.819 91.084 438.883 91.7C439.966 92.316 440.815 93.1747 441.431 94.276C442.066 95.3587 442.383 96.6187 442.383 98.056C442.383 99.4933 442.066 100.763 441.431 101.864C440.815 102.947 439.966 103.796 438.883 104.412C437.8 105.028 436.596 105.336 435.271 105.336ZM435.271 102.228C436.204 102.228 437.016 101.883 437.707 101.192C438.398 100.483 438.743 99.4373 438.743 98.056C438.743 96.6747 438.398 95.6387 437.707 94.948C437.016 94.2387 436.214 93.884 435.299 93.884C434.347 93.884 433.526 94.2387 432.835 94.948C432.163 95.6387 431.827 96.6747 431.827 98.056C431.827 99.4373 432.163 100.483 432.835 101.192C433.526 101.883 434.338 102.228 435.271 102.228ZM445.588 105V91.112H448.78L449.116 93.716C449.62 92.82 450.301 92.1107 451.16 91.588C452.037 91.0467 453.064 90.776 454.24 90.776V94.556H453.232C452.448 94.556 451.748 94.6773 451.132 94.92C450.516 95.1627 450.03 95.5827 449.676 96.18C449.34 96.7773 449.172 97.608 449.172 98.672V105H445.588ZM456.689 105V91.112H459.881L460.217 93.716C460.721 92.82 461.402 92.1107 462.261 91.588C463.138 91.0467 464.165 90.776 465.341 90.776V94.556H464.333C463.549 94.556 462.849 94.6773 462.233 94.92C461.617 95.1627 461.132 95.5827 460.777 96.18C460.441 96.7773 460.273 97.608 460.273 98.672V105H456.689ZM474.209 105.336C472.865 105.336 471.651 105.028 470.569 104.412C469.505 103.796 468.655 102.947 468.021 101.864C467.405 100.763 467.097 99.4933 467.097 98.056C467.097 96.6187 467.414 95.3587 468.049 94.276C468.683 93.1747 469.533 92.316 470.597 91.7C471.679 91.084 472.893 90.776 474.237 90.776C475.562 90.776 476.757 91.084 477.821 91.7C478.903 92.316 479.753 93.1747 480.369 94.276C481.003 95.3587 481.321 96.6187 481.321 98.056C481.321 99.4933 481.003 100.763 480.369 101.864C479.753 102.947 478.903 103.796 477.821 104.412C476.738 105.028 475.534 105.336 474.209 105.336ZM474.209 102.228C475.142 102.228 475.954 101.883 476.645 101.192C477.335 100.483 477.681 99.4373 477.681 98.056C477.681 96.6747 477.335 95.6387 476.645 94.948C475.954 94.2387 475.151 93.884 474.237 93.884C473.285 93.884 472.463 94.2387 471.773 94.948C471.101 95.6387 470.765 96.6747 470.765 98.056C470.765 99.4373 471.101 100.483 471.773 101.192C472.463 101.883 473.275 102.228 474.209 102.228ZM486.749 105L482.689 91.112H486.245L488.653 101.108L491.453 91.112H495.429L498.229 101.108L500.665 91.112H504.221L500.133 105H496.409L493.441 94.612L490.473 105H486.749ZM507.557 105.196C506.904 105.196 506.363 104.991 505.933 104.58C505.523 104.169 505.317 103.675 505.317 103.096C505.317 102.499 505.523 101.995 505.933 101.584C506.363 101.173 506.904 100.968 507.557 100.968C508.211 100.968 508.743 101.173 509.153 101.584C509.583 101.995 509.797 102.499 509.797 103.096C509.797 103.675 509.583 104.169 509.153 104.58C508.743 104.991 508.211 105.196 507.557 105.196Z" fill="white"/>
<path d="M131.322 151V137H136.242C137.228 137 138.042 137.16 138.682 137.48C139.335 137.787 139.822 138.213 140.142 138.76C140.462 139.293 140.622 139.893 140.622 140.56C140.622 141.467 140.375 142.18 139.882 142.7C139.402 143.22 138.822 143.58 138.142 143.78C138.662 143.873 139.135 144.08 139.562 144.4C139.988 144.72 140.322 145.12 140.562 145.6C140.815 146.08 140.942 146.607 140.942 147.18C140.942 147.887 140.768 148.533 140.422 149.12C140.075 149.693 139.562 150.153 138.882 150.5C138.202 150.833 137.375 151 136.402 151H131.322ZM133.002 143.12H136.122C137.015 143.12 137.702 142.913 138.182 142.5C138.662 142.073 138.902 141.487 138.902 140.74C138.902 140.033 138.662 139.467 138.182 139.04C137.715 138.613 137.008 138.4 136.062 138.4H133.002V143.12ZM133.002 149.6H136.222C137.182 149.6 137.922 149.38 138.442 148.94C138.962 148.487 139.222 147.86 139.222 147.06C139.222 146.273 138.948 145.647 138.402 145.18C137.855 144.7 137.115 144.46 136.182 144.46H133.002V149.6ZM143.253 151V141.08H144.773L144.913 142.98C145.22 142.327 145.686 141.807 146.313 141.42C146.94 141.033 147.713 140.84 148.633 140.84V142.6H148.173C147.586 142.6 147.046 142.707 146.553 142.92C146.06 143.12 145.666 143.467 145.373 143.96C145.08 144.453 144.933 145.133 144.933 146V151H143.253ZM151.539 138.88C151.205 138.88 150.925 138.773 150.699 138.56C150.485 138.333 150.379 138.053 150.379 137.72C150.379 137.4 150.485 137.133 150.699 136.92C150.925 136.707 151.205 136.6 151.539 136.6C151.859 136.6 152.132 136.707 152.359 136.92C152.585 137.133 152.699 137.4 152.699 137.72C152.699 138.053 152.585 138.333 152.359 138.56C152.132 138.773 151.859 138.88 151.539 138.88ZM150.699 151V141.08H152.379V151H150.699ZM155.304 151V141.08H156.824L156.924 142.86C157.244 142.233 157.704 141.74 158.304 141.38C158.904 141.02 159.584 140.84 160.344 140.84C161.517 140.84 162.45 141.2 163.144 141.92C163.85 142.627 164.204 143.72 164.204 145.2V151H162.524V145.38C162.524 143.313 161.67 142.28 159.964 142.28C159.11 142.28 158.397 142.593 157.824 143.22C157.264 143.833 156.984 144.713 156.984 145.86V151H155.304ZM170.669 147.88C170.109 147.88 169.596 147.807 169.129 147.66L168.129 148.6C168.276 148.707 168.456 148.8 168.669 148.88C168.896 148.947 169.216 149.013 169.629 149.08C170.042 149.133 170.622 149.193 171.369 149.26C172.702 149.353 173.656 149.66 174.229 150.18C174.802 150.7 175.089 151.38 175.089 152.22C175.089 152.793 174.929 153.34 174.609 153.86C174.302 154.38 173.822 154.807 173.169 155.14C172.529 155.473 171.702 155.64 170.689 155.64C169.796 155.64 169.002 155.52 168.309 155.28C167.616 155.053 167.076 154.7 166.689 154.22C166.302 153.753 166.109 153.16 166.109 152.44C166.109 152.067 166.209 151.66 166.409 151.22C166.609 150.793 166.982 150.387 167.529 150C167.236 149.88 166.982 149.753 166.769 149.62C166.569 149.473 166.382 149.313 166.209 149.14V148.68L167.909 147C167.122 146.333 166.729 145.453 166.729 144.36C166.729 143.707 166.882 143.113 167.189 142.58C167.496 142.047 167.942 141.627 168.529 141.32C169.116 141 169.829 140.84 170.669 140.84C171.242 140.84 171.762 140.92 172.229 141.08H175.889V142.34L174.029 142.42C174.416 142.98 174.609 143.627 174.609 144.36C174.609 145.013 174.449 145.607 174.129 146.14C173.822 146.673 173.376 147.1 172.789 147.42C172.216 147.727 171.509 147.88 170.669 147.88ZM170.669 146.5C171.376 146.5 171.936 146.32 172.349 145.96C172.776 145.587 172.989 145.053 172.989 144.36C172.989 143.68 172.776 143.16 172.349 142.8C171.936 142.427 171.376 142.24 170.669 142.24C169.949 142.24 169.376 142.427 168.949 142.8C168.536 143.16 168.329 143.68 168.329 144.36C168.329 145.053 168.536 145.587 168.949 145.96C169.376 146.32 169.949 146.5 170.669 146.5ZM167.749 152.28C167.749 152.947 168.029 153.44 168.589 153.76C169.149 154.093 169.849 154.26 170.689 154.26C171.516 154.26 172.176 154.08 172.669 153.72C173.176 153.36 173.429 152.88 173.429 152.28C173.429 151.853 173.256 151.48 172.909 151.16C172.562 150.853 171.922 150.673 170.989 150.62C170.256 150.567 169.622 150.5 169.089 150.42C168.542 150.713 168.182 151.027 168.009 151.36C167.836 151.707 167.749 152.013 167.749 152.28ZM183.077 151V136.6H184.757V142.78C185.091 142.167 185.564 141.693 186.177 141.36C186.791 141.013 187.457 140.84 188.177 140.84C189.324 140.84 190.244 141.2 190.937 141.92C191.631 142.627 191.977 143.72 191.977 145.2V151H190.317V145.38C190.317 143.313 189.484 142.28 187.817 142.28C186.951 142.28 186.224 142.593 185.637 143.22C185.051 143.833 184.757 144.713 184.757 145.86V151H183.077ZM197.823 151.24C196.996 151.24 196.309 151.1 195.763 150.82C195.216 150.54 194.809 150.167 194.543 149.7C194.276 149.233 194.143 148.727 194.143 148.18C194.143 147.167 194.529 146.387 195.303 145.84C196.076 145.293 197.129 145.02 198.463 145.02H201.143V144.9C201.143 144.033 200.916 143.38 200.463 142.94C200.009 142.487 199.403 142.26 198.643 142.26C197.989 142.26 197.423 142.427 196.943 142.76C196.476 143.08 196.183 143.553 196.063 144.18H194.343C194.409 143.46 194.649 142.853 195.063 142.36C195.489 141.867 196.016 141.493 196.643 141.24C197.269 140.973 197.936 140.84 198.643 140.84C200.029 140.84 201.069 141.213 201.763 141.96C202.469 142.693 202.823 143.673 202.823 144.9V151H201.323L201.223 149.22C200.943 149.78 200.529 150.26 199.983 150.66C199.449 151.047 198.729 151.24 197.823 151.24ZM198.083 149.82C198.723 149.82 199.269 149.653 199.723 149.32C200.189 148.987 200.543 148.553 200.783 148.02C201.023 147.487 201.143 146.927 201.143 146.34V146.32H198.603C197.616 146.32 196.916 146.493 196.503 146.84C196.103 147.173 195.903 147.593 195.903 148.1C195.903 148.62 196.089 149.04 196.463 149.36C196.849 149.667 197.389 149.82 198.083 149.82ZM205.343 151V141.08H206.863L207.003 142.98C207.31 142.327 207.776 141.807 208.403 141.42C209.03 141.033 209.803 140.84 210.723 140.84V142.6H210.263C209.676 142.6 209.136 142.707 208.643 142.92C208.15 143.12 207.756 143.467 207.463 143.96C207.17 144.453 207.023 145.133 207.023 146V151H205.343ZM212.609 151V141.08H214.129L214.249 142.52C214.569 141.987 214.995 141.573 215.529 141.28C216.062 140.987 216.662 140.84 217.329 140.84C218.115 140.84 218.789 141 219.349 141.32C219.922 141.64 220.362 142.127 220.669 142.78C221.015 142.18 221.489 141.707 222.089 141.36C222.702 141.013 223.362 140.84 224.069 140.84C225.255 140.84 226.202 141.2 226.909 141.92C227.615 142.627 227.969 143.72 227.969 145.2V151H226.309V145.38C226.309 144.353 226.102 143.58 225.689 143.06C225.275 142.54 224.682 142.28 223.909 142.28C223.109 142.28 222.442 142.593 221.909 143.22C221.389 143.833 221.129 144.713 221.129 145.86V151H219.449V145.38C219.449 144.353 219.242 143.58 218.829 143.06C218.415 142.54 217.822 142.28 217.049 142.28C216.262 142.28 215.602 142.593 215.069 143.22C214.549 143.833 214.289 144.713 214.289 145.86V151H212.609ZM235.019 151.24C234.086 151.24 233.246 151.027 232.499 150.6C231.752 150.173 231.159 149.573 230.719 148.8C230.292 148.013 230.079 147.093 230.079 146.04C230.079 144.987 230.299 144.073 230.739 143.3C231.179 142.513 231.772 141.907 232.519 141.48C233.279 141.053 234.126 140.84 235.059 140.84C235.992 140.84 236.832 141.053 237.579 141.48C238.326 141.907 238.912 142.513 239.339 143.3C239.779 144.073 239.999 144.987 239.999 146.04C239.999 147.093 239.779 148.013 239.339 148.8C238.899 149.573 238.299 150.173 237.539 150.6C236.792 151.027 235.952 151.24 235.019 151.24ZM235.019 149.8C235.592 149.8 236.126 149.66 236.619 149.38C237.112 149.1 237.512 148.68 237.819 148.12C238.126 147.56 238.279 146.867 238.279 146.04C238.279 145.213 238.126 144.52 237.819 143.96C237.526 143.4 237.132 142.98 236.639 142.7C236.146 142.42 235.619 142.28 235.059 142.28C234.486 142.28 233.952 142.42 233.459 142.7C232.966 142.98 232.566 143.4 232.259 143.96C231.952 144.52 231.799 145.213 231.799 146.04C231.799 146.867 231.952 147.56 232.259 148.12C232.566 148.68 232.959 149.1 233.439 149.38C233.932 149.66 234.459 149.8 235.019 149.8ZM242.335 151V141.08H243.855L243.955 142.86C244.275 142.233 244.735 141.74 245.335 141.38C245.935 141.02 246.615 140.84 247.375 140.84C248.548 140.84 249.482 141.2 250.175 141.92C250.882 142.627 251.235 143.72 251.235 145.2V151H249.555V145.38C249.555 143.313 248.702 142.28 246.995 142.28C246.142 142.28 245.428 142.593 244.855 143.22C244.295 143.833 244.015 144.713 244.015 145.86V151H242.335ZM254.567 155.4L257.027 150.04H256.447L252.507 141.08H254.327L257.607 148.8L261.087 141.08H262.827L256.327 155.4H254.567ZM273.814 151C272.907 151 272.194 150.78 271.674 150.34C271.154 149.9 270.894 149.107 270.894 147.96V142.5H269.174V141.08H270.894L271.114 138.7H272.574V141.08H275.494V142.5H272.574V147.96C272.574 148.587 272.7 149.013 272.954 149.24C273.207 149.453 273.654 149.56 274.294 149.56H275.334V151H273.814ZM281.875 151.24C280.941 151.24 280.101 151.027 279.355 150.6C278.608 150.173 278.015 149.573 277.575 148.8C277.148 148.013 276.935 147.093 276.935 146.04C276.935 144.987 277.155 144.073 277.595 143.3C278.035 142.513 278.628 141.907 279.375 141.48C280.135 141.053 280.981 140.84 281.915 140.84C282.848 140.84 283.688 141.053 284.435 141.48C285.181 141.907 285.768 142.513 286.195 143.3C286.635 144.073 286.855 144.987 286.855 146.04C286.855 147.093 286.635 148.013 286.195 148.8C285.755 149.573 285.155 150.173 284.395 150.6C283.648 151.027 282.808 151.24 281.875 151.24ZM281.875 149.8C282.448 149.8 282.981 149.66 283.475 149.38C283.968 149.1 284.368 148.68 284.675 148.12C284.981 147.56 285.135 146.867 285.135 146.04C285.135 145.213 284.981 144.52 284.675 143.96C284.381 143.4 283.988 142.98 283.495 142.7C283.001 142.42 282.475 142.28 281.915 142.28C281.341 142.28 280.808 142.42 280.315 142.7C279.821 142.98 279.421 143.4 279.115 143.96C278.808 144.52 278.655 145.213 278.655 146.04C278.655 146.867 278.808 147.56 279.115 148.12C279.421 148.68 279.815 149.1 280.295 149.38C280.788 149.66 281.315 149.8 281.875 149.8ZM298.404 151C297.497 151 296.784 150.78 296.264 150.34C295.744 149.9 295.484 149.107 295.484 147.96V142.5H293.764V141.08H295.484L295.704 138.7H297.164V141.08H300.084V142.5H297.164V147.96C297.164 148.587 297.29 149.013 297.544 149.24C297.797 149.453 298.244 149.56 298.884 149.56H299.924V151H298.404ZM306.404 151.24C305.458 151.24 304.618 151.027 303.884 150.6C303.151 150.16 302.571 149.553 302.144 148.78C301.731 148.007 301.524 147.093 301.524 146.04C301.524 145 301.731 144.093 302.144 143.32C302.558 142.533 303.131 141.927 303.864 141.5C304.611 141.06 305.471 140.84 306.444 140.84C307.404 140.84 308.231 141.06 308.924 141.5C309.631 141.927 310.171 142.493 310.544 143.2C310.918 143.907 311.104 144.667 311.104 145.48C311.104 145.627 311.098 145.773 311.084 145.92C311.084 146.067 311.084 146.233 311.084 146.42H303.184C303.224 147.18 303.398 147.813 303.704 148.32C304.024 148.813 304.418 149.187 304.884 149.44C305.364 149.693 305.871 149.82 306.404 149.82C307.098 149.82 307.678 149.66 308.144 149.34C308.611 149.02 308.951 148.587 309.164 148.04H310.824C310.558 148.96 310.044 149.727 309.284 150.34C308.538 150.94 307.578 151.24 306.404 151.24ZM306.404 142.26C305.604 142.26 304.891 142.507 304.264 143C303.651 143.48 303.298 144.187 303.204 145.12H309.444C309.404 144.227 309.098 143.527 308.524 143.02C307.951 142.513 307.244 142.26 306.404 142.26ZM316.631 151.24C315.805 151.24 315.118 151.1 314.571 150.82C314.025 150.54 313.618 150.167 313.351 149.7C313.085 149.233 312.951 148.727 312.951 148.18C312.951 147.167 313.338 146.387 314.111 145.84C314.885 145.293 315.938 145.02 317.271 145.02H319.951V144.9C319.951 144.033 319.725 143.38 319.271 142.94C318.818 142.487 318.211 142.26 317.451 142.26C316.798 142.26 316.231 142.427 315.751 142.76C315.285 143.08 314.991 143.553 314.871 144.18H313.151C313.218 143.46 313.458 142.853 313.871 142.36C314.298 141.867 314.825 141.493 315.451 141.24C316.078 140.973 316.745 140.84 317.451 140.84C318.838 140.84 319.878 141.213 320.571 141.96C321.278 142.693 321.631 143.673 321.631 144.9V151H320.131L320.031 149.22C319.751 149.78 319.338 150.26 318.791 150.66C318.258 151.047 317.538 151.24 316.631 151.24ZM316.891 149.82C317.531 149.82 318.078 149.653 318.531 149.32C318.998 148.987 319.351 148.553 319.591 148.02C319.831 147.487 319.951 146.927 319.951 146.34V146.32H317.411C316.425 146.32 315.725 146.493 315.311 146.84C314.911 147.173 314.711 147.593 314.711 148.1C314.711 148.62 314.898 149.04 315.271 149.36C315.658 149.667 316.198 149.82 316.891 149.82ZM324.151 151V141.08H325.671L325.791 142.52C326.111 141.987 326.538 141.573 327.071 141.28C327.605 140.987 328.205 140.84 328.871 140.84C329.658 140.84 330.331 141 330.891 141.32C331.465 141.64 331.905 142.127 332.211 142.78C332.558 142.18 333.031 141.707 333.631 141.36C334.245 141.013 334.905 140.84 335.611 140.84C336.798 140.84 337.745 141.2 338.451 141.92C339.158 142.627 339.511 143.72 339.511 145.2V151H337.851V145.38C337.851 144.353 337.645 143.58 337.231 143.06C336.818 142.54 336.225 142.28 335.451 142.28C334.651 142.28 333.985 142.593 333.451 143.22C332.931 143.833 332.671 144.713 332.671 145.86V151H330.991V145.38C330.991 144.353 330.785 143.58 330.371 143.06C329.958 142.54 329.365 142.28 328.591 142.28C327.805 142.28 327.145 142.593 326.611 143.22C326.091 143.833 325.831 144.713 325.831 145.86V151H324.151ZM351.795 151.24C350.848 151.24 350.008 151.027 349.275 150.6C348.542 150.16 347.962 149.553 347.535 148.78C347.122 148.007 346.915 147.093 346.915 146.04C346.915 145 347.122 144.093 347.535 143.32C347.948 142.533 348.522 141.927 349.255 141.5C350.002 141.06 350.862 140.84 351.835 140.84C352.795 140.84 353.622 141.06 354.315 141.5C355.022 141.927 355.562 142.493 355.935 143.2C356.308 143.907 356.495 144.667 356.495 145.48C356.495 145.627 356.488 145.773 356.475 145.92C356.475 146.067 356.475 146.233 356.475 146.42H348.575C348.615 147.18 348.788 147.813 349.095 148.32C349.415 148.813 349.808 149.187 350.275 149.44C350.755 149.693 351.262 149.82 351.795 149.82C352.488 149.82 353.068 149.66 353.535 149.34C354.002 149.02 354.342 148.587 354.555 148.04H356.215C355.948 148.96 355.435 149.727 354.675 150.34C353.928 150.94 352.968 151.24 351.795 151.24ZM351.795 142.26C350.995 142.26 350.282 142.507 349.655 143C349.042 143.48 348.688 144.187 348.595 145.12H354.835C354.795 144.227 354.488 143.527 353.915 143.02C353.342 142.513 352.635 142.26 351.795 142.26ZM357.253 151L360.693 146.04L357.253 141.08H359.073L361.853 145.18L364.653 141.08H366.453L363.013 146.04L366.453 151H364.653L361.853 146.9L359.073 151H357.253ZM368.214 155.4V141.08H369.734L369.894 142.72C370.214 142.24 370.667 141.807 371.254 141.42C371.854 141.033 372.614 140.84 373.534 140.84C374.521 140.84 375.381 141.067 376.114 141.52C376.847 141.973 377.414 142.593 377.814 143.38C378.227 144.167 378.434 145.06 378.434 146.06C378.434 147.06 378.227 147.953 377.814 148.74C377.414 149.513 376.841 150.127 376.094 150.58C375.361 151.02 374.501 151.24 373.514 151.24C372.701 151.24 371.974 151.073 371.334 150.74C370.707 150.407 370.227 149.94 369.894 149.34V155.4H368.214ZM373.334 149.78C374.001 149.78 374.587 149.627 375.094 149.32C375.601 149 376.001 148.56 376.294 148C376.587 147.44 376.734 146.787 376.734 146.04C376.734 145.293 376.587 144.64 376.294 144.08C376.001 143.52 375.601 143.087 375.094 142.78C374.587 142.46 374.001 142.3 373.334 142.3C372.667 142.3 372.081 142.46 371.574 142.78C371.067 143.087 370.667 143.52 370.374 144.08C370.081 144.64 369.934 145.293 369.934 146.04C369.934 146.787 370.081 147.44 370.374 148C370.667 148.56 371.067 149 371.574 149.32C372.081 149.627 372.667 149.78 373.334 149.78ZM385.233 151.24C384.286 151.24 383.446 151.027 382.713 150.6C381.979 150.16 381.399 149.553 380.973 148.78C380.559 148.007 380.353 147.093 380.353 146.04C380.353 145 380.559 144.093 380.973 143.32C381.386 142.533 381.959 141.927 382.693 141.5C383.439 141.06 384.299 140.84 385.273 140.84C386.233 140.84 387.059 141.06 387.753 141.5C388.459 141.927 388.999 142.493 389.373 143.2C389.746 143.907 389.933 144.667 389.933 145.48C389.933 145.627 389.926 145.773 389.913 145.92C389.913 146.067 389.913 146.233 389.913 146.42H382.013C382.053 147.18 382.226 147.813 382.533 148.32C382.853 148.813 383.246 149.187 383.713 149.44C384.193 149.693 384.699 149.82 385.233 149.82C385.926 149.82 386.506 149.66 386.973 149.34C387.439 149.02 387.779 148.587 387.993 148.04H389.653C389.386 148.96 388.873 149.727 388.113 150.34C387.366 150.94 386.406 151.24 385.233 151.24ZM385.233 142.26C384.433 142.26 383.719 142.507 383.093 143C382.479 143.48 382.126 144.187 382.033 145.12H388.273C388.233 144.227 387.926 143.527 387.353 143.02C386.779 142.513 386.073 142.26 385.233 142.26ZM392.159 151V141.08H393.679L393.779 142.86C394.099 142.233 394.559 141.74 395.159 141.38C395.759 141.02 396.439 140.84 397.199 140.84C398.373 140.84 399.306 141.2 399.999 141.92C400.706 142.627 401.059 143.72 401.059 145.2V151H399.379V145.38C399.379 143.313 398.526 142.28 396.819 142.28C395.966 142.28 395.253 142.593 394.679 143.22C394.119 143.833 393.839 144.713 393.839 145.86V151H392.159ZM407.405 151.24C406.218 151.24 405.231 150.94 404.445 150.34C403.658 149.74 403.198 148.927 403.065 147.9H404.785C404.891 148.42 405.165 148.873 405.605 149.26C406.058 149.633 406.665 149.82 407.425 149.82C408.131 149.82 408.651 149.673 408.985 149.38C409.318 149.073 409.485 148.713 409.485 148.3C409.485 147.7 409.265 147.3 408.825 147.1C408.398 146.9 407.791 146.72 407.005 146.56C406.471 146.453 405.938 146.3 405.405 146.1C404.871 145.9 404.425 145.62 404.065 145.26C403.705 144.887 403.525 144.4 403.525 143.8C403.525 142.933 403.845 142.227 404.485 141.68C405.138 141.12 406.018 140.84 407.125 140.84C408.178 140.84 409.038 141.107 409.705 141.64C410.385 142.16 410.778 142.907 410.885 143.88H409.225C409.158 143.373 408.938 142.98 408.565 142.7C408.205 142.407 407.718 142.26 407.105 142.26C406.505 142.26 406.038 142.387 405.705 142.64C405.385 142.893 405.225 143.227 405.225 143.64C405.225 144.04 405.431 144.353 405.845 144.58C406.271 144.807 406.845 145 407.565 145.16C408.178 145.293 408.758 145.46 409.305 145.66C409.865 145.847 410.318 146.133 410.665 146.52C411.025 146.893 411.205 147.44 411.205 148.16C411.218 149.053 410.878 149.793 410.185 150.38C409.505 150.953 408.578 151.24 407.405 151.24ZM418.065 151.24C417.118 151.24 416.278 151.027 415.545 150.6C414.811 150.16 414.231 149.553 413.805 148.78C413.391 148.007 413.185 147.093 413.185 146.04C413.185 145 413.391 144.093 413.805 143.32C414.218 142.533 414.791 141.927 415.525 141.5C416.271 141.06 417.131 140.84 418.105 140.84C419.065 140.84 419.891 141.06 420.585 141.5C421.291 141.927 421.831 142.493 422.205 143.2C422.578 143.907 422.765 144.667 422.765 145.48C422.765 145.627 422.758 145.773 422.745 145.92C422.745 146.067 422.745 146.233 422.745 146.42H414.845C414.885 147.18 415.058 147.813 415.365 148.32C415.685 148.813 416.078 149.187 416.545 149.44C417.025 149.693 417.531 149.82 418.065 149.82C418.758 149.82 419.338 149.66 419.805 149.34C420.271 149.02 420.611 148.587 420.825 148.04H422.485C422.218 148.96 421.705 149.727 420.945 150.34C420.198 150.94 419.238 151.24 418.065 151.24ZM418.065 142.26C417.265 142.26 416.551 142.507 415.925 143C415.311 143.48 414.958 144.187 414.865 145.12H421.105C421.065 144.227 420.758 143.527 420.185 143.02C419.611 142.513 418.905 142.26 418.065 142.26ZM428.791 151.24C427.605 151.24 426.618 150.94 425.831 150.34C425.045 149.74 424.585 148.927 424.451 147.9H426.171C426.278 148.42 426.551 148.873 426.991 149.26C427.445 149.633 428.051 149.82 428.811 149.82C429.518 149.82 430.038 149.673 430.371 149.38C430.705 149.073 430.871 148.713 430.871 148.3C430.871 147.7 430.651 147.3 430.211 147.1C429.785 146.9 429.178 146.72 428.391 146.56C427.858 146.453 427.325 146.3 426.791 146.1C426.258 145.9 425.811 145.62 425.451 145.26C425.091 144.887 424.911 144.4 424.911 143.8C424.911 142.933 425.231 142.227 425.871 141.68C426.525 141.12 427.405 140.84 428.511 140.84C429.565 140.84 430.425 141.107 431.091 141.64C431.771 142.16 432.165 142.907 432.271 143.88H430.611C430.545 143.373 430.325 142.98 429.951 142.7C429.591 142.407 429.105 142.26 428.491 142.26C427.891 142.26 427.425 142.387 427.091 142.64C426.771 142.893 426.611 143.227 426.611 143.64C426.611 144.04 426.818 144.353 427.231 144.58C427.658 144.807 428.231 145 428.951 145.16C429.565 145.293 430.145 145.46 430.691 145.66C431.251 145.847 431.705 146.133 432.051 146.52C432.411 146.893 432.591 147.44 432.591 148.16C432.605 149.053 432.265 149.793 431.571 150.38C430.891 150.953 429.965 151.24 428.791 151.24ZM442.284 151L439.384 141.08H441.064L443.164 148.86L445.484 141.08H447.384L449.724 148.86L451.804 141.08H453.504L450.604 151H448.884L446.444 142.82L444.004 151H442.284ZM456.382 138.88C456.049 138.88 455.769 138.773 455.542 138.56C455.329 138.333 455.222 138.053 455.222 137.72C455.222 137.4 455.329 137.133 455.542 136.92C455.769 136.707 456.049 136.6 456.382 136.6C456.702 136.6 456.976 136.707 457.202 136.92C457.429 137.133 457.542 137.4 457.542 137.72C457.542 138.053 457.429 138.333 457.202 138.56C456.976 138.773 456.702 138.88 456.382 138.88ZM455.542 151V141.08H457.222V151H455.542ZM464.068 151C463.161 151 462.448 150.78 461.928 150.34C461.408 149.9 461.148 149.107 461.148 147.96V142.5H459.428V141.08H461.148L461.368 138.7H462.828V141.08H465.748V142.5H462.828V147.96C462.828 148.587 462.954 149.013 463.208 149.24C463.461 149.453 463.908 149.56 464.548 149.56H465.588V151H464.068ZM467.882 151V136.6H469.562V142.78C469.895 142.167 470.369 141.693 470.982 141.36C471.595 141.013 472.262 140.84 472.982 140.84C474.129 140.84 475.049 141.2 475.742 141.92C476.435 142.627 476.782 143.72 476.782 145.2V151H475.122V145.38C475.122 143.313 474.289 142.28 472.622 142.28C471.755 142.28 471.029 142.593 470.442 143.22C469.855 143.833 469.562 144.713 469.562 145.86V151H467.882ZM489.92 151.24C489.107 151.24 488.38 151.073 487.74 150.74C487.114 150.407 486.634 149.94 486.3 149.34L486.14 151H484.62V136.6H486.3V142.72C486.62 142.24 487.074 141.807 487.66 141.42C488.26 141.033 489.02 140.84 489.94 140.84C490.927 140.84 491.787 141.067 492.52 141.52C493.254 141.973 493.82 142.593 494.22 143.38C494.634 144.167 494.84 145.06 494.84 146.06C494.84 147.06 494.634 147.953 494.22 148.74C493.82 149.513 493.247 150.127 492.5 150.58C491.767 151.02 490.907 151.24 489.92 151.24ZM489.74 149.78C490.407 149.78 490.994 149.627 491.5 149.32C492.007 149 492.407 148.56 492.7 148C492.994 147.44 493.14 146.787 493.14 146.04C493.14 145.293 492.994 144.64 492.7 144.08C492.407 143.52 492.007 143.087 491.5 142.78C490.994 142.46 490.407 142.3 489.74 142.3C489.074 142.3 488.487 142.46 487.98 142.78C487.474 143.087 487.074 143.52 486.78 144.08C486.487 144.64 486.34 145.293 486.34 146.04C486.34 146.787 486.487 147.44 486.78 148C487.074 148.56 487.474 149 487.98 149.32C488.487 149.627 489.074 149.78 489.74 149.78ZM500.799 151.24C499.625 151.24 498.692 150.887 497.999 150.18C497.305 149.46 496.959 148.36 496.959 146.88V141.08H498.639V146.7C498.639 148.767 499.485 149.8 501.179 149.8C502.045 149.8 502.759 149.493 503.319 148.88C503.892 148.253 504.179 147.367 504.179 146.22V141.08H505.859V151H504.339L504.219 149.22C503.912 149.847 503.452 150.34 502.839 150.7C502.239 151.06 501.559 151.24 500.799 151.24ZM513.124 151.24C512.137 151.24 511.271 151.013 510.524 150.56C509.791 150.107 509.217 149.487 508.804 148.7C508.404 147.913 508.204 147.02 508.204 146.02C508.204 145.02 508.411 144.133 508.824 143.36C509.237 142.573 509.811 141.96 510.544 141.52C511.277 141.067 512.144 140.84 513.144 140.84C513.957 140.84 514.677 141.007 515.304 141.34C515.931 141.673 516.417 142.14 516.764 142.74V136.6H518.444V151H516.924L516.764 149.36C516.444 149.84 515.984 150.273 515.384 150.66C514.784 151.047 514.031 151.24 513.124 151.24ZM513.304 149.78C513.971 149.78 514.557 149.627 515.064 149.32C515.584 149 515.984 148.56 516.264 148C516.557 147.44 516.704 146.787 516.704 146.04C516.704 145.293 516.557 144.64 516.264 144.08C515.984 143.52 515.584 143.087 515.064 142.78C514.557 142.46 513.971 142.3 513.304 142.3C512.651 142.3 512.064 142.46 511.544 142.78C511.037 143.087 510.637 143.52 510.344 144.08C510.064 144.64 509.924 145.293 509.924 146.04C509.924 146.787 510.064 147.44 510.344 148C510.637 148.56 511.037 149 511.544 149.32C512.064 149.627 512.651 149.78 513.304 149.78ZM525.103 147.88C524.543 147.88 524.029 147.807 523.563 147.66L522.563 148.6C522.709 148.707 522.889 148.8 523.103 148.88C523.329 148.947 523.649 149.013 524.063 149.08C524.476 149.133 525.056 149.193 525.803 149.26C527.136 149.353 528.089 149.66 528.663 150.18C529.236 150.7 529.523 151.38 529.523 152.22C529.523 152.793 529.363 153.34 529.043 153.86C528.736 154.38 528.256 154.807 527.603 155.14C526.963 155.473 526.136 155.64 525.123 155.64C524.229 155.64 523.436 155.52 522.743 155.28C522.049 155.053 521.509 154.7 521.123 154.22C520.736 153.753 520.543 153.16 520.543 152.44C520.543 152.067 520.643 151.66 520.843 151.22C521.043 150.793 521.416 150.387 521.963 150C521.669 149.88 521.416 149.753 521.203 149.62C521.003 149.473 520.816 149.313 520.643 149.14V148.68L522.343 147C521.556 146.333 521.163 145.453 521.163 144.36C521.163 143.707 521.316 143.113 521.623 142.58C521.929 142.047 522.376 141.627 522.963 141.32C523.549 141 524.263 140.84 525.103 140.84C525.676 140.84 526.196 140.92 526.663 141.08H530.323V142.34L528.463 142.42C528.849 142.98 529.043 143.627 529.043 144.36C529.043 145.013 528.883 145.607 528.563 146.14C528.256 146.673 527.809 147.1 527.223 147.42C526.649 147.727 525.943 147.88 525.103 147.88ZM525.103 146.5C525.809 146.5 526.369 146.32 526.783 145.96C527.209 145.587 527.423 145.053 527.423 144.36C527.423 143.68 527.209 143.16 526.783 142.8C526.369 142.427 525.809 142.24 525.103 142.24C524.383 142.24 523.809 142.427 523.383 142.8C522.969 143.16 522.763 143.68 522.763 144.36C522.763 145.053 522.969 145.587 523.383 145.96C523.809 146.32 524.383 146.5 525.103 146.5ZM522.183 152.28C522.183 152.947 522.463 153.44 523.023 153.76C523.583 154.093 524.283 154.26 525.123 154.26C525.949 154.26 526.609 154.08 527.103 153.72C527.609 153.36 527.863 152.88 527.863 152.28C527.863 151.853 527.689 151.48 527.343 151.16C526.996 150.853 526.356 150.673 525.423 150.62C524.689 150.567 524.056 150.5 523.523 150.42C522.976 150.713 522.616 151.027 522.443 151.36C522.269 151.707 522.183 152.013 522.183 152.28ZM536.287 151.24C535.341 151.24 534.501 151.027 533.767 150.6C533.034 150.16 532.454 149.553 532.027 148.78C531.614 148.007 531.407 147.093 531.407 146.04C531.407 145 531.614 144.093 532.027 143.32C532.441 142.533 533.014 141.927 533.747 141.5C534.494 141.06 535.354 140.84 536.327 140.84C537.287 140.84 538.114 141.06 538.807 141.5C539.514 141.927 540.054 142.493 540.427 143.2C540.801 143.907 540.987 144.667 540.987 145.48C540.987 145.627 540.981 145.773 540.967 145.92C540.967 146.067 540.967 146.233 540.967 146.42H533.067C533.107 147.18 533.281 147.813 533.587 148.32C533.907 148.813 534.301 149.187 534.767 149.44C535.247 149.693 535.754 149.82 536.287 149.82C536.981 149.82 537.561 149.66 538.027 149.34C538.494 149.02 538.834 148.587 539.047 148.04H540.707C540.441 148.96 539.927 149.727 539.167 150.34C538.421 150.94 537.461 151.24 536.287 151.24ZM536.287 142.26C535.487 142.26 534.774 142.507 534.147 143C533.534 143.48 533.181 144.187 533.087 145.12H539.327C539.287 144.227 538.981 143.527 538.407 143.02C537.834 142.513 537.127 142.26 536.287 142.26ZM546.802 151C545.895 151 545.182 150.78 544.662 150.34C544.142 149.9 543.882 149.107 543.882 147.96V142.5H542.162V141.08H543.882L544.102 138.7H545.562V141.08H548.482V142.5H545.562V147.96C545.562 148.587 545.689 149.013 545.942 149.24C546.195 149.453 546.642 149.56 547.282 149.56H548.322V151H546.802ZM555.909 151V136.6H557.589V151H555.909ZM561.363 138.88C561.03 138.88 560.75 138.773 560.523 138.56C560.31 138.333 560.203 138.053 560.203 137.72C560.203 137.4 560.31 137.133 560.523 136.92C560.75 136.707 561.03 136.6 561.363 136.6C561.683 136.6 561.956 136.707 562.183 136.92C562.41 137.133 562.523 137.4 562.523 137.72C562.523 138.053 562.41 138.333 562.183 138.56C561.956 138.773 561.683 138.88 561.363 138.88ZM560.523 151V141.08H562.203V151H560.523ZM565.128 151V141.08H566.648L566.768 142.52C567.088 141.987 567.515 141.573 568.048 141.28C568.581 140.987 569.181 140.84 569.848 140.84C570.635 140.84 571.308 141 571.868 141.32C572.441 141.64 572.881 142.127 573.188 142.78C573.535 142.18 574.008 141.707 574.608 141.36C575.221 141.013 575.881 140.84 576.588 140.84C577.775 140.84 578.721 141.2 579.428 141.92C580.135 142.627 580.488 143.72 580.488 145.2V151H578.828V145.38C578.828 144.353 578.621 143.58 578.208 143.06C577.795 142.54 577.201 142.28 576.428 142.28C575.628 142.28 574.961 142.593 574.428 143.22C573.908 143.833 573.648 144.713 573.648 145.86V151H571.968V145.38C571.968 144.353 571.761 143.58 571.348 143.06C570.935 142.54 570.341 142.28 569.568 142.28C568.781 142.28 568.121 142.593 567.588 143.22C567.068 143.833 566.808 144.713 566.808 145.86V151H565.128ZM584.039 138.88C583.705 138.88 583.425 138.773 583.199 138.56C582.985 138.333 582.879 138.053 582.879 137.72C582.879 137.4 582.985 137.133 583.199 136.92C583.425 136.707 583.705 136.6 584.039 136.6C584.359 136.6 584.632 136.707 584.859 136.92C585.085 137.133 585.199 137.4 585.199 137.72C585.199 138.053 585.085 138.333 584.859 138.56C584.632 138.773 584.359 138.88 584.039 138.88ZM583.199 151V141.08H584.879V151H583.199ZM591.724 151C590.817 151 590.104 150.78 589.584 150.34C589.064 149.9 588.804 149.107 588.804 147.96V142.5H587.084V141.08H588.804L589.024 138.7H590.484V141.08H593.404V142.5H590.484V147.96C590.484 148.587 590.61 149.013 590.864 149.24C591.117 149.453 591.564 149.56 592.204 149.56H593.244V151H591.724ZM599.338 151.24C598.152 151.24 597.165 150.94 596.378 150.34C595.592 149.74 595.132 148.927 594.998 147.9H596.718C596.825 148.42 597.098 148.873 597.538 149.26C597.992 149.633 598.598 149.82 599.358 149.82C600.065 149.82 600.585 149.673 600.918 149.38C601.252 149.073 601.418 148.713 601.418 148.3C601.418 147.7 601.198 147.3 600.758 147.1C600.332 146.9 599.725 146.72 598.938 146.56C598.405 146.453 597.872 146.3 597.338 146.1C596.805 145.9 596.358 145.62 595.998 145.26C595.638 144.887 595.458 144.4 595.458 143.8C595.458 142.933 595.778 142.227 596.418 141.68C597.072 141.12 597.952 140.84 599.058 140.84C600.112 140.84 600.972 141.107 601.638 141.64C602.318 142.16 602.712 142.907 602.818 143.88H601.158C601.092 143.373 600.872 142.98 600.498 142.7C600.138 142.407 599.652 142.26 599.038 142.26C598.438 142.26 597.972 142.387 597.638 142.64C597.318 142.893 597.158 143.227 597.158 143.64C597.158 144.04 597.365 144.353 597.778 144.58C598.205 144.807 598.778 145 599.498 145.16C600.112 145.293 600.692 145.46 601.238 145.66C601.798 145.847 602.252 146.133 602.598 146.52C602.958 146.893 603.138 147.44 603.138 148.16C603.152 149.053 602.812 149.793 602.118 150.38C601.438 150.953 600.512 151.24 599.338 151.24ZM150.41 187.24C149.584 187.24 148.897 187.1 148.35 186.82C147.804 186.54 147.397 186.167 147.13 185.7C146.864 185.233 146.73 184.727 146.73 184.18C146.73 183.167 147.117 182.387 147.89 181.84C148.664 181.293 149.717 181.02 151.05 181.02H153.73V180.9C153.73 180.033 153.504 179.38 153.05 178.94C152.597 178.487 151.99 178.26 151.23 178.26C150.577 178.26 150.01 178.427 149.53 178.76C149.064 179.08 148.77 179.553 148.65 180.18H146.93C146.997 179.46 147.237 178.853 147.65 178.36C148.077 177.867 148.604 177.493 149.23 177.24C149.857 176.973 150.524 176.84 151.23 176.84C152.617 176.84 153.657 177.213 154.35 177.96C155.057 178.693 155.41 179.673 155.41 180.9V187H153.91L153.81 185.22C153.53 185.78 153.117 186.26 152.57 186.66C152.037 187.047 151.317 187.24 150.41 187.24ZM150.67 185.82C151.31 185.82 151.857 185.653 152.31 185.32C152.777 184.987 153.13 184.553 153.37 184.02C153.61 183.487 153.73 182.927 153.73 182.34V182.32H151.19C150.204 182.32 149.504 182.493 149.09 182.84C148.69 183.173 148.49 183.593 148.49 184.1C148.49 184.62 148.677 185.04 149.05 185.36C149.437 185.667 149.977 185.82 150.67 185.82ZM157.931 187V177.08H159.451L159.551 178.86C159.871 178.233 160.331 177.74 160.931 177.38C161.531 177.02 162.211 176.84 162.971 176.84C164.144 176.84 165.077 177.2 165.771 177.92C166.477 178.627 166.831 179.72 166.831 181.2V187H165.151V181.38C165.151 179.313 164.297 178.28 162.591 178.28C161.737 178.28 161.024 178.593 160.451 179.22C159.891 179.833 159.611 180.713 159.611 181.86V187H157.931ZM173.876 187.24C172.889 187.24 172.023 187.013 171.276 186.56C170.543 186.107 169.969 185.487 169.556 184.7C169.156 183.913 168.956 183.02 168.956 182.02C168.956 181.02 169.163 180.133 169.576 179.36C169.989 178.573 170.563 177.96 171.296 177.52C172.029 177.067 172.896 176.84 173.896 176.84C174.709 176.84 175.429 177.007 176.056 177.34C176.683 177.673 177.169 178.14 177.516 178.74V172.6H179.196V187H177.676L177.516 185.36C177.196 185.84 176.736 186.273 176.136 186.66C175.536 187.047 174.783 187.24 173.876 187.24ZM174.056 185.78C174.723 185.78 175.309 185.627 175.816 185.32C176.336 185 176.736 184.56 177.016 184C177.309 183.44 177.456 182.787 177.456 182.04C177.456 181.293 177.309 180.64 177.016 180.08C176.736 179.52 176.336 179.087 175.816 178.78C175.309 178.46 174.723 178.3 174.056 178.3C173.403 178.3 172.816 178.46 172.296 178.78C171.789 179.087 171.389 179.52 171.096 180.08C170.816 180.64 170.676 181.293 170.676 182.04C170.676 182.787 170.816 183.44 171.096 184C171.389 184.56 171.789 185 172.296 185.32C172.816 185.627 173.403 185.78 174.056 185.78ZM187.228 187V177.08H188.748L188.888 178.98C189.194 178.327 189.661 177.807 190.288 177.42C190.914 177.033 191.688 176.84 192.608 176.84V178.6H192.148C191.561 178.6 191.021 178.707 190.528 178.92C190.034 179.12 189.641 179.467 189.348 179.96C189.054 180.453 188.908 181.133 188.908 182V187H187.228ZM198.582 187.24C197.636 187.24 196.796 187.027 196.062 186.6C195.329 186.16 194.749 185.553 194.322 184.78C193.909 184.007 193.702 183.093 193.702 182.04C193.702 181 193.909 180.093 194.322 179.32C194.736 178.533 195.309 177.927 196.042 177.5C196.789 177.06 197.649 176.84 198.622 176.84C199.582 176.84 200.409 177.06 201.102 177.5C201.809 177.927 202.349 178.493 202.722 179.2C203.096 179.907 203.282 180.667 203.282 181.48C203.282 181.627 203.276 181.773 203.262 181.92C203.262 182.067 203.262 182.233 203.262 182.42H195.362C195.402 183.18 195.576 183.813 195.882 184.32C196.202 184.813 196.596 185.187 197.062 185.44C197.542 185.693 198.049 185.82 198.582 185.82C199.276 185.82 199.856 185.66 200.322 185.34C200.789 185.02 201.129 184.587 201.342 184.04H203.002C202.736 184.96 202.222 185.727 201.462 186.34C200.716 186.94 199.756 187.24 198.582 187.24ZM198.582 178.26C197.782 178.26 197.069 178.507 196.442 179C195.829 179.48 195.476 180.187 195.382 181.12H201.622C201.582 180.227 201.276 179.527 200.702 179.02C200.129 178.513 199.422 178.26 198.582 178.26ZM208.809 187.24C207.982 187.24 207.296 187.1 206.749 186.82C206.202 186.54 205.796 186.167 205.529 185.7C205.262 185.233 205.129 184.727 205.129 184.18C205.129 183.167 205.516 182.387 206.289 181.84C207.062 181.293 208.116 181.02 209.449 181.02H212.129V180.9C212.129 180.033 211.902 179.38 211.449 178.94C210.996 178.487 210.389 178.26 209.629 178.26C208.976 178.26 208.409 178.427 207.929 178.76C207.462 179.08 207.169 179.553 207.049 180.18H205.329C205.396 179.46 205.636 178.853 206.049 178.36C206.476 177.867 207.002 177.493 207.629 177.24C208.256 176.973 208.922 176.84 209.629 176.84C211.016 176.84 212.056 177.213 212.749 177.96C213.456 178.693 213.809 179.673 213.809 180.9V187H212.309L212.209 185.22C211.929 185.78 211.516 186.26 210.969 186.66C210.436 187.047 209.716 187.24 208.809 187.24ZM209.069 185.82C209.709 185.82 210.256 185.653 210.709 185.32C211.176 184.987 211.529 184.553 211.769 184.02C212.009 183.487 212.129 182.927 212.129 182.34V182.32H209.589C208.602 182.32 207.902 182.493 207.489 182.84C207.089 183.173 206.889 183.593 206.889 184.1C206.889 184.62 207.076 185.04 207.449 185.36C207.836 185.667 208.376 185.82 209.069 185.82ZM216.329 187V172.6H218.009V187H216.329ZM220.563 181.9V180.48H228.483V181.9H220.563ZM234.937 187C234.03 187 233.317 186.78 232.797 186.34C232.277 185.9 232.017 185.107 232.017 183.96V178.5H230.297V177.08H232.017L232.237 174.7H233.697V177.08H236.617V178.5H233.697V183.96C233.697 184.587 233.823 185.013 234.077 185.24C234.33 185.453 234.777 185.56 235.417 185.56H236.457V187H234.937ZM239.771 174.88C239.438 174.88 239.158 174.773 238.931 174.56C238.718 174.333 238.611 174.053 238.611 173.72C238.611 173.4 238.718 173.133 238.931 172.92C239.158 172.707 239.438 172.6 239.771 172.6C240.091 172.6 240.364 172.707 240.591 172.92C240.818 173.133 240.931 173.4 240.931 173.72C240.931 174.053 240.818 174.333 240.591 174.56C240.364 174.773 240.091 174.88 239.771 174.88ZM238.931 187V177.08H240.611V187H238.931ZM243.536 187V177.08H245.056L245.176 178.52C245.496 177.987 245.923 177.573 246.456 177.28C246.99 176.987 247.59 176.84 248.256 176.84C249.043 176.84 249.716 177 250.276 177.32C250.85 177.64 251.29 178.127 251.596 178.78C251.943 178.18 252.416 177.707 253.016 177.36C253.63 177.013 254.29 176.84 254.996 176.84C256.183 176.84 257.13 177.2 257.836 177.92C258.543 178.627 258.896 179.72 258.896 181.2V187H257.236V181.38C257.236 180.353 257.03 179.58 256.616 179.06C256.203 178.54 255.61 178.28 254.836 178.28C254.036 178.28 253.37 178.593 252.836 179.22C252.316 179.833 252.056 180.713 252.056 181.86V187H250.376V181.38C250.376 180.353 250.17 179.58 249.756 179.06C249.343 178.54 248.75 178.28 247.976 178.28C247.19 178.28 246.53 178.593 245.996 179.22C245.476 179.833 245.216 180.713 245.216 181.86V187H243.536ZM265.887 187.24C264.94 187.24 264.1 187.027 263.367 186.6C262.634 186.16 262.054 185.553 261.627 184.78C261.214 184.007 261.007 183.093 261.007 182.04C261.007 181 261.214 180.093 261.627 179.32C262.04 178.533 262.614 177.927 263.347 177.5C264.094 177.06 264.954 176.84 265.927 176.84C266.887 176.84 267.714 177.06 268.407 177.5C269.114 177.927 269.654 178.493 270.027 179.2C270.4 179.907 270.587 180.667 270.587 181.48C270.587 181.627 270.58 181.773 270.567 181.92C270.567 182.067 270.567 182.233 270.567 182.42H262.667C262.707 183.18 262.88 183.813 263.187 184.32C263.507 184.813 263.9 185.187 264.367 185.44C264.847 185.693 265.354 185.82 265.887 185.82C266.58 185.82 267.16 185.66 267.627 185.34C268.094 185.02 268.434 184.587 268.647 184.04H270.307C270.04 184.96 269.527 185.727 268.767 186.34C268.02 186.94 267.06 187.24 265.887 187.24ZM265.887 178.26C265.087 178.26 264.374 178.507 263.747 179C263.134 179.48 262.78 180.187 262.687 181.12H268.927C268.887 180.227 268.58 179.527 268.007 179.02C267.434 178.513 266.727 178.26 265.887 178.26ZM278.107 187V177.08H279.627L279.747 178.52C280.067 177.987 280.493 177.573 281.027 177.28C281.56 176.987 282.16 176.84 282.827 176.84C283.613 176.84 284.287 177 284.847 177.32C285.42 177.64 285.86 178.127 286.167 178.78C286.513 178.18 286.987 177.707 287.587 177.36C288.2 177.013 288.86 176.84 289.567 176.84C290.753 176.84 291.7 177.2 292.407 177.92C293.113 178.627 293.467 179.72 293.467 181.2V187H291.807V181.38C291.807 180.353 291.6 179.58 291.187 179.06C290.773 178.54 290.18 178.28 289.407 178.28C288.607 178.28 287.94 178.593 287.407 179.22C286.887 179.833 286.627 180.713 286.627 181.86V187H284.947V181.38C284.947 180.353 284.74 179.58 284.327 179.06C283.913 178.54 283.32 178.28 282.547 178.28C281.76 178.28 281.1 178.593 280.567 179.22C280.047 179.833 279.787 180.713 279.787 181.86V187H278.107ZM300.517 187.24C299.584 187.24 298.744 187.027 297.997 186.6C297.251 186.173 296.657 185.573 296.217 184.8C295.791 184.013 295.577 183.093 295.577 182.04C295.577 180.987 295.797 180.073 296.237 179.3C296.677 178.513 297.271 177.907 298.017 177.48C298.777 177.053 299.624 176.84 300.557 176.84C301.491 176.84 302.331 177.053 303.077 177.48C303.824 177.907 304.411 178.513 304.837 179.3C305.277 180.073 305.497 180.987 305.497 182.04C305.497 183.093 305.277 184.013 304.837 184.8C304.397 185.573 303.797 186.173 303.037 186.6C302.291 187.027 301.451 187.24 300.517 187.24ZM300.517 185.8C301.091 185.8 301.624 185.66 302.117 185.38C302.611 185.1 303.011 184.68 303.317 184.12C303.624 183.56 303.777 182.867 303.777 182.04C303.777 181.213 303.624 180.52 303.317 179.96C303.024 179.4 302.631 178.98 302.137 178.7C301.644 178.42 301.117 178.28 300.557 178.28C299.984 178.28 299.451 178.42 298.957 178.7C298.464 178.98 298.064 179.4 297.757 179.96C297.451 180.52 297.297 181.213 297.297 182.04C297.297 182.867 297.451 183.56 297.757 184.12C298.064 184.68 298.457 185.1 298.937 185.38C299.431 185.66 299.957 185.8 300.517 185.8ZM307.833 187V177.08H309.353L309.453 178.86C309.773 178.233 310.233 177.74 310.833 177.38C311.433 177.02 312.113 176.84 312.873 176.84C314.046 176.84 314.98 177.2 315.673 177.92C316.38 178.627 316.733 179.72 316.733 181.2V187H315.053V181.38C315.053 179.313 314.2 178.28 312.493 178.28C311.64 178.28 310.926 178.593 310.353 179.22C309.793 179.833 309.513 180.713 309.513 181.86V187H307.833ZM320.298 174.88C319.965 174.88 319.685 174.773 319.458 174.56C319.245 174.333 319.138 174.053 319.138 173.72C319.138 173.4 319.245 173.133 319.458 172.92C319.685 172.707 319.965 172.6 320.298 172.6C320.618 172.6 320.892 172.707 321.118 172.92C321.345 173.133 321.458 173.4 321.458 173.72C321.458 174.053 321.345 174.333 321.118 174.56C320.892 174.773 320.618 174.88 320.298 174.88ZM319.458 187V177.08H321.138V187H319.458ZM327.984 187C327.077 187 326.364 186.78 325.844 186.34C325.324 185.9 325.064 185.107 325.064 183.96V178.5H323.344V177.08H325.064L325.284 174.7H326.744V177.08H329.664V178.5H326.744V183.96C326.744 184.587 326.87 185.013 327.124 185.24C327.377 185.453 327.824 185.56 328.464 185.56H329.504V187H327.984ZM332.818 174.88C332.485 174.88 332.205 174.773 331.978 174.56C331.765 174.333 331.658 174.053 331.658 173.72C331.658 173.4 331.765 173.133 331.978 172.92C332.205 172.707 332.485 172.6 332.818 172.6C333.138 172.6 333.411 172.707 333.638 172.92C333.865 173.133 333.978 173.4 333.978 173.72C333.978 174.053 333.865 174.333 333.638 174.56C333.411 174.773 333.138 174.88 332.818 174.88ZM331.978 187V177.08H333.658V187H331.978ZM336.583 187V177.08H338.103L338.243 178.98C338.55 178.327 339.016 177.807 339.643 177.42C340.27 177.033 341.043 176.84 341.963 176.84V178.6H341.503C340.916 178.6 340.376 178.707 339.883 178.92C339.39 179.12 338.996 179.467 338.703 179.96C338.41 180.453 338.263 181.133 338.263 182V187H336.583ZM344.869 174.88C344.535 174.88 344.255 174.773 344.029 174.56C343.815 174.333 343.709 174.053 343.709 173.72C343.709 173.4 343.815 173.133 344.029 172.92C344.255 172.707 344.535 172.6 344.869 172.6C345.189 172.6 345.462 172.707 345.689 172.92C345.915 173.133 346.029 173.4 346.029 173.72C346.029 174.053 345.915 174.333 345.689 174.56C345.462 174.773 345.189 174.88 344.869 174.88ZM344.029 187V177.08H345.709V187H344.029ZM348.634 187V177.08H350.154L350.254 178.86C350.574 178.233 351.034 177.74 351.634 177.38C352.234 177.02 352.914 176.84 353.674 176.84C354.847 176.84 355.781 177.2 356.474 177.92C357.181 178.627 357.534 179.72 357.534 181.2V187H355.854V181.38C355.854 179.313 355.001 178.28 353.294 178.28C352.441 178.28 351.727 178.593 351.154 179.22C350.594 179.833 350.314 180.713 350.314 181.86V187H348.634ZM363.999 183.88C363.439 183.88 362.926 183.807 362.459 183.66L361.459 184.6C361.606 184.707 361.786 184.8 361.999 184.88C362.226 184.947 362.546 185.013 362.959 185.08C363.373 185.133 363.953 185.193 364.699 185.26C366.033 185.353 366.986 185.66 367.559 186.18C368.133 186.7 368.419 187.38 368.419 188.22C368.419 188.793 368.259 189.34 367.939 189.86C367.633 190.38 367.153 190.807 366.499 191.14C365.859 191.473 365.033 191.64 364.019 191.64C363.126 191.64 362.333 191.52 361.639 191.28C360.946 191.053 360.406 190.7 360.019 190.22C359.633 189.753 359.439 189.16 359.439 188.44C359.439 188.067 359.539 187.66 359.739 187.22C359.939 186.793 360.313 186.387 360.859 186C360.566 185.88 360.313 185.753 360.099 185.62C359.899 185.473 359.713 185.313 359.539 185.14V184.68L361.239 183C360.453 182.333 360.059 181.453 360.059 180.36C360.059 179.707 360.213 179.113 360.519 178.58C360.826 178.047 361.273 177.627 361.859 177.32C362.446 177 363.159 176.84 363.999 176.84C364.573 176.84 365.093 176.92 365.559 177.08H369.219V178.34L367.359 178.42C367.746 178.98 367.939 179.627 367.939 180.36C367.939 181.013 367.779 181.607 367.459 182.14C367.153 182.673 366.706 183.1 366.119 183.42C365.546 183.727 364.839 183.88 363.999 183.88ZM363.999 182.5C364.706 182.5 365.266 182.32 365.679 181.96C366.106 181.587 366.319 181.053 366.319 180.36C366.319 179.68 366.106 179.16 365.679 178.8C365.266 178.427 364.706 178.24 363.999 178.24C363.279 178.24 362.706 178.427 362.279 178.8C361.866 179.16 361.659 179.68 361.659 180.36C361.659 181.053 361.866 181.587 362.279 181.96C362.706 182.32 363.279 182.5 363.999 182.5ZM361.079 188.28C361.079 188.947 361.359 189.44 361.919 189.76C362.479 190.093 363.179 190.26 364.019 190.26C364.846 190.26 365.506 190.08 365.999 189.72C366.506 189.36 366.759 188.88 366.759 188.28C366.759 187.853 366.586 187.48 366.239 187.16C365.893 186.853 365.253 186.673 364.319 186.62C363.586 186.567 362.953 186.5 362.419 186.42C361.873 186.713 361.513 187.027 361.339 187.36C361.166 187.707 361.079 188.013 361.079 188.28ZM371.694 187.1C371.361 187.1 371.081 186.993 370.854 186.78C370.641 186.553 370.534 186.28 370.534 185.96C370.534 185.64 370.641 185.373 370.854 185.16C371.081 184.933 371.361 184.82 371.694 184.82C372.014 184.82 372.281 184.933 372.494 185.16C372.721 185.373 372.834 185.64 372.834 185.96C372.834 186.28 372.721 186.553 372.494 186.78C372.281 186.993 372.014 187.1 371.694 187.1ZM380.414 187V173H388.934V174.38H382.094V179.3H387.914V180.66H382.094V187H380.414ZM390.997 187V177.08H392.517L392.657 178.98C392.964 178.327 393.431 177.807 394.057 177.42C394.684 177.033 395.457 176.84 396.377 176.84V178.6H395.917C395.331 178.6 394.791 178.707 394.297 178.92C393.804 179.12 393.411 179.467 393.117 179.96C392.824 180.453 392.677 181.133 392.677 182V187H390.997ZM402.352 187.24C401.405 187.24 400.565 187.027 399.832 186.6C399.098 186.16 398.518 185.553 398.092 184.78C397.678 184.007 397.472 183.093 397.472 182.04C397.472 181 397.678 180.093 398.092 179.32C398.505 178.533 399.078 177.927 399.812 177.5C400.558 177.06 401.418 176.84 402.392 176.84C403.352 176.84 404.178 177.06 404.872 177.5C405.578 177.927 406.118 178.493 406.492 179.2C406.865 179.907 407.052 180.667 407.052 181.48C407.052 181.627 407.045 181.773 407.032 181.92C407.032 182.067 407.032 182.233 407.032 182.42H399.132C399.172 183.18 399.345 183.813 399.652 184.32C399.972 184.813 400.365 185.187 400.832 185.44C401.312 185.693 401.818 185.82 402.352 185.82C403.045 185.82 403.625 185.66 404.092 185.34C404.558 185.02 404.898 184.587 405.112 184.04H406.772C406.505 184.96 405.992 185.727 405.232 186.34C404.485 186.94 403.525 187.24 402.352 187.24ZM402.352 178.26C401.552 178.26 400.838 178.507 400.212 179C399.598 179.48 399.245 180.187 399.152 181.12H405.392C405.352 180.227 405.045 179.527 404.472 179.02C403.898 178.513 403.192 178.26 402.352 178.26ZM413.738 187.24C412.792 187.24 411.952 187.027 411.218 186.6C410.485 186.16 409.905 185.553 409.478 184.78C409.065 184.007 408.858 183.093 408.858 182.04C408.858 181 409.065 180.093 409.478 179.32C409.892 178.533 410.465 177.927 411.198 177.5C411.945 177.06 412.805 176.84 413.778 176.84C414.738 176.84 415.565 177.06 416.258 177.5C416.965 177.927 417.505 178.493 417.878 179.2C418.252 179.907 418.438 180.667 418.438 181.48C418.438 181.627 418.432 181.773 418.418 181.92C418.418 182.067 418.418 182.233 418.418 182.42H410.518C410.558 183.18 410.732 183.813 411.038 184.32C411.358 184.813 411.752 185.187 412.218 185.44C412.698 185.693 413.205 185.82 413.738 185.82C414.432 185.82 415.012 185.66 415.478 185.34C415.945 185.02 416.285 184.587 416.498 184.04H418.158C417.892 184.96 417.378 185.727 416.618 186.34C415.872 186.94 414.912 187.24 413.738 187.24ZM413.738 178.26C412.938 178.26 412.225 178.507 411.598 179C410.985 179.48 410.632 180.187 410.538 181.12H416.778C416.738 180.227 416.432 179.527 415.858 179.02C415.285 178.513 414.578 178.26 413.738 178.26ZM425.165 187.24C424.178 187.24 423.312 187.013 422.565 186.56C421.832 186.107 421.258 185.487 420.845 184.7C420.445 183.913 420.245 183.02 420.245 182.02C420.245 181.02 420.452 180.133 420.865 179.36C421.278 178.573 421.852 177.96 422.585 177.52C423.318 177.067 424.185 176.84 425.185 176.84C425.998 176.84 426.718 177.007 427.345 177.34C427.972 177.673 428.458 178.14 428.805 178.74V172.6H430.485V187H428.965L428.805 185.36C428.485 185.84 428.025 186.273 427.425 186.66C426.825 187.047 426.072 187.24 425.165 187.24ZM425.345 185.78C426.012 185.78 426.598 185.627 427.105 185.32C427.625 185 428.025 184.56 428.305 184C428.598 183.44 428.745 182.787 428.745 182.04C428.745 181.293 428.598 180.64 428.305 180.08C428.025 179.52 427.625 179.087 427.105 178.78C426.598 178.46 426.012 178.3 425.345 178.3C424.692 178.3 424.105 178.46 423.585 178.78C423.078 179.087 422.678 179.52 422.385 180.08C422.105 180.64 421.965 181.293 421.965 182.04C421.965 182.787 422.105 183.44 422.385 184C422.678 184.56 423.078 185 423.585 185.32C424.105 185.627 424.692 185.78 425.345 185.78ZM437.744 187.24C436.81 187.24 435.97 187.027 435.224 186.6C434.477 186.173 433.884 185.573 433.444 184.8C433.017 184.013 432.804 183.093 432.804 182.04C432.804 180.987 433.024 180.073 433.464 179.3C433.904 178.513 434.497 177.907 435.244 177.48C436.004 177.053 436.85 176.84 437.784 176.84C438.717 176.84 439.557 177.053 440.304 177.48C441.05 177.907 441.637 178.513 442.064 179.3C442.504 180.073 442.724 180.987 442.724 182.04C442.724 183.093 442.504 184.013 442.064 184.8C441.624 185.573 441.024 186.173 440.264 186.6C439.517 187.027 438.677 187.24 437.744 187.24ZM437.744 185.8C438.317 185.8 438.85 185.66 439.344 185.38C439.837 185.1 440.237 184.68 440.544 184.12C440.85 183.56 441.004 182.867 441.004 182.04C441.004 181.213 440.85 180.52 440.544 179.96C440.25 179.4 439.857 178.98 439.364 178.7C438.87 178.42 438.344 178.28 437.784 178.28C437.21 178.28 436.677 178.42 436.184 178.7C435.69 178.98 435.29 179.4 434.984 179.96C434.677 180.52 434.524 181.213 434.524 182.04C434.524 182.867 434.677 183.56 434.984 184.12C435.29 184.68 435.684 185.1 436.164 185.38C436.657 185.66 437.184 185.8 437.744 185.8ZM445.06 187V177.08H446.58L446.7 178.52C447.02 177.987 447.446 177.573 447.98 177.28C448.513 176.987 449.113 176.84 449.78 176.84C450.566 176.84 451.24 177 451.8 177.32C452.373 177.64 452.813 178.127 453.12 178.78C453.466 178.18 453.94 177.707 454.54 177.36C455.153 177.013 455.813 176.84 456.52 176.84C457.706 176.84 458.653 177.2 459.36 177.92C460.066 178.627 460.42 179.72 460.42 181.2V187H458.76V181.38C458.76 180.353 458.553 179.58 458.14 179.06C457.726 178.54 457.133 178.28 456.36 178.28C455.56 178.28 454.893 178.593 454.36 179.22C453.84 179.833 453.58 180.713 453.58 181.86V187H451.9V181.38C451.9 180.353 451.693 179.58 451.28 179.06C450.866 178.54 450.273 178.28 449.5 178.28C448.713 178.28 448.053 178.593 447.52 179.22C447 179.833 446.74 180.713 446.74 181.86V187H445.06ZM468.783 187V178.5H467.283V177.08H468.783V175.36C468.783 174.4 469.023 173.7 469.503 173.26C469.983 172.82 470.683 172.6 471.603 172.6H472.603V174.04H471.863C471.357 174.04 470.997 174.147 470.783 174.36C470.57 174.56 470.463 174.907 470.463 175.4V177.08H472.903V178.5H470.463V187H468.783ZM479.033 187.24C478.099 187.24 477.259 187.027 476.513 186.6C475.766 186.173 475.173 185.573 474.733 184.8C474.306 184.013 474.093 183.093 474.093 182.04C474.093 180.987 474.313 180.073 474.753 179.3C475.193 178.513 475.786 177.907 476.533 177.48C477.293 177.053 478.139 176.84 479.073 176.84C480.006 176.84 480.846 177.053 481.593 177.48C482.339 177.907 482.926 178.513 483.353 179.3C483.793 180.073 484.013 180.987 484.013 182.04C484.013 183.093 483.793 184.013 483.353 184.8C482.913 185.573 482.313 186.173 481.553 186.6C480.806 187.027 479.966 187.24 479.033 187.24ZM479.033 185.8C479.606 185.8 480.139 185.66 480.633 185.38C481.126 185.1 481.526 184.68 481.833 184.12C482.139 183.56 482.293 182.867 482.293 182.04C482.293 181.213 482.139 180.52 481.833 179.96C481.539 179.4 481.146 178.98 480.653 178.7C480.159 178.42 479.633 178.28 479.073 178.28C478.499 178.28 477.966 178.42 477.473 178.7C476.979 178.98 476.579 179.4 476.273 179.96C475.966 180.52 475.813 181.213 475.813 182.04C475.813 182.867 475.966 183.56 476.273 184.12C476.579 184.68 476.973 185.1 477.453 185.38C477.946 185.66 478.473 185.8 479.033 185.8ZM486.349 187V177.08H487.869L488.009 178.98C488.315 178.327 488.782 177.807 489.409 177.42C490.035 177.033 490.809 176.84 491.729 176.84V178.6H491.269C490.682 178.6 490.142 178.707 489.649 178.92C489.155 179.12 488.762 179.467 488.469 179.96C488.175 180.453 488.029 181.133 488.029 182V187H486.349ZM499.987 191.4L502.447 186.04H501.867L497.927 177.08H499.747L503.027 184.8L506.507 177.08H508.247L501.747 191.4H499.987ZM513.603 187.24C512.67 187.24 511.83 187.027 511.083 186.6C510.336 186.173 509.743 185.573 509.303 184.8C508.876 184.013 508.663 183.093 508.663 182.04C508.663 180.987 508.883 180.073 509.323 179.3C509.763 178.513 510.356 177.907 511.103 177.48C511.863 177.053 512.71 176.84 513.643 176.84C514.576 176.84 515.416 177.053 516.163 177.48C516.91 177.907 517.496 178.513 517.923 179.3C518.363 180.073 518.583 180.987 518.583 182.04C518.583 183.093 518.363 184.013 517.923 184.8C517.483 185.573 516.883 186.173 516.123 186.6C515.376 187.027 514.536 187.24 513.603 187.24ZM513.603 185.8C514.176 185.8 514.71 185.66 515.203 185.38C515.696 185.1 516.096 184.68 516.403 184.12C516.71 183.56 516.863 182.867 516.863 182.04C516.863 181.213 516.71 180.52 516.403 179.96C516.11 179.4 515.716 178.98 515.223 178.7C514.73 178.42 514.203 178.28 513.643 178.28C513.07 178.28 512.536 178.42 512.043 178.7C511.55 178.98 511.15 179.4 510.843 179.96C510.536 180.52 510.383 181.213 510.383 182.04C510.383 182.867 510.536 183.56 510.843 184.12C511.15 184.68 511.543 185.1 512.023 185.38C512.516 185.66 513.043 185.8 513.603 185.8ZM524.539 187.24C523.366 187.24 522.432 186.887 521.739 186.18C521.046 185.46 520.699 184.36 520.699 182.88V177.08H522.379V182.7C522.379 184.767 523.226 185.8 524.919 185.8C525.786 185.8 526.499 185.493 527.059 184.88C527.632 184.253 527.919 183.367 527.919 182.22V177.08H529.599V187H528.079L527.959 185.22C527.652 185.847 527.192 186.34 526.579 186.7C525.979 187.06 525.299 187.24 524.539 187.24ZM532.364 187V177.08H533.884L534.024 178.98C534.331 178.327 534.798 177.807 535.424 177.42C536.051 177.033 536.824 176.84 537.744 176.84V178.6H537.284C536.698 178.6 536.158 178.707 535.664 178.92C535.171 179.12 534.778 179.467 534.484 179.96C534.191 180.453 534.044 181.133 534.044 182V187H532.364ZM548.723 187.24C547.536 187.24 546.55 186.94 545.763 186.34C544.976 185.74 544.516 184.927 544.383 183.9H546.103C546.21 184.42 546.483 184.873 546.923 185.26C547.376 185.633 547.983 185.82 548.743 185.82C549.45 185.82 549.97 185.673 550.303 185.38C550.636 185.073 550.803 184.713 550.803 184.3C550.803 183.7 550.583 183.3 550.143 183.1C549.716 182.9 549.11 182.72 548.323 182.56C547.79 182.453 547.256 182.3 546.723 182.1C546.19 181.9 545.743 181.62 545.383 181.26C545.023 180.887 544.843 180.4 544.843 179.8C544.843 178.933 545.163 178.227 545.803 177.68C546.456 177.12 547.336 176.84 548.443 176.84C549.496 176.84 550.356 177.107 551.023 177.64C551.703 178.16 552.096 178.907 552.203 179.88H550.543C550.476 179.373 550.256 178.98 549.883 178.7C549.523 178.407 549.036 178.26 548.423 178.26C547.823 178.26 547.356 178.387 547.023 178.64C546.703 178.893 546.543 179.227 546.543 179.64C546.543 180.04 546.75 180.353 547.163 180.58C547.59 180.807 548.163 181 548.883 181.16C549.496 181.293 550.076 181.46 550.623 181.66C551.183 181.847 551.636 182.133 551.983 182.52C552.343 182.893 552.523 183.44 552.523 184.16C552.536 185.053 552.196 185.793 551.503 186.38C550.823 186.953 549.896 187.24 548.723 187.24ZM558.394 187C557.487 187 556.774 186.78 556.254 186.34C555.734 185.9 555.474 185.107 555.474 183.96V178.5H553.754V177.08H555.474L555.694 174.7H557.154V177.08H560.074V178.5H557.154V183.96C557.154 184.587 557.28 185.013 557.534 185.24C557.787 185.453 558.234 185.56 558.874 185.56H559.914V187H558.394ZM565.508 187.24C564.681 187.24 563.995 187.1 563.448 186.82C562.901 186.54 562.495 186.167 562.228 185.7C561.961 185.233 561.828 184.727 561.828 184.18C561.828 183.167 562.215 182.387 562.988 181.84C563.761 181.293 564.815 181.02 566.148 181.02H568.828V180.9C568.828 180.033 568.601 179.38 568.148 178.94C567.695 178.487 567.088 178.26 566.328 178.26C565.675 178.26 565.108 178.427 564.628 178.76C564.161 179.08 563.868 179.553 563.748 180.18H562.028C562.095 179.46 562.335 178.853 562.748 178.36C563.175 177.867 563.701 177.493 564.328 177.24C564.955 176.973 565.621 176.84 566.328 176.84C567.715 176.84 568.755 177.213 569.448 177.96C570.155 178.693 570.508 179.673 570.508 180.9V187H569.008L568.908 185.22C568.628 185.78 568.215 186.26 567.668 186.66C567.135 187.047 566.415 187.24 565.508 187.24ZM565.768 185.82C566.408 185.82 566.955 185.653 567.408 185.32C567.875 184.987 568.228 184.553 568.468 184.02C568.708 183.487 568.828 182.927 568.828 182.34V182.32H566.288C565.301 182.32 564.601 182.493 564.188 182.84C563.788 183.173 563.588 183.593 563.588 184.1C563.588 184.62 563.775 185.04 564.148 185.36C564.535 185.667 565.075 185.82 565.768 185.82ZM573.568 187V178.5H572.068V177.08H573.568V175.36C573.568 174.4 573.808 173.7 574.288 173.26C574.768 172.82 575.468 172.6 576.388 172.6H577.388V174.04H576.648C576.142 174.04 575.782 174.147 575.568 174.36C575.355 174.56 575.248 174.907 575.248 175.4V177.08H577.688V178.5H575.248V187H573.568ZM580.229 187V178.5H578.729V177.08H580.229V175.36C580.229 174.4 580.469 173.7 580.949 173.26C581.429 172.82 582.129 172.6 583.049 172.6H584.049V174.04H583.309C582.802 174.04 582.442 174.147 582.229 174.36C582.015 174.56 581.909 174.907 581.909 175.4V177.08H584.349V178.5H581.909V187H580.229ZM586.323 187.1C585.99 187.1 585.71 186.993 585.483 186.78C585.27 186.553 585.163 186.28 585.163 185.96C585.163 185.64 585.27 185.373 585.483 185.16C585.71 184.933 585.99 184.82 586.323 184.82C586.643 184.82 586.91 184.933 587.123 185.16C587.35 185.373 587.463 185.64 587.463 185.96C587.463 186.28 587.35 186.553 587.123 186.78C586.91 186.993 586.643 187.1 586.323 187.1ZM265.941 223V209H270.541C271.634 209 272.534 209.18 273.241 209.54C273.948 209.9 274.468 210.387 274.801 211C275.148 211.613 275.321 212.307 275.321 213.08C275.321 213.84 275.154 214.527 274.821 215.14C274.488 215.753 273.968 216.247 273.261 216.62C272.554 216.98 271.648 217.16 270.541 217.16H267.621V223H265.941ZM267.621 215.74H270.501C271.621 215.74 272.414 215.507 272.881 215.04C273.361 214.56 273.601 213.907 273.601 213.08C273.601 212.24 273.361 211.587 272.881 211.12C272.414 210.64 271.621 210.4 270.501 210.4H267.621V215.74ZM281.297 223.24C280.35 223.24 279.51 223.027 278.777 222.6C278.044 222.16 277.464 221.553 277.037 220.78C276.624 220.007 276.417 219.093 276.417 218.04C276.417 217 276.624 216.093 277.037 215.32C277.45 214.533 278.024 213.927 278.757 213.5C279.504 213.06 280.364 212.84 281.337 212.84C282.297 212.84 283.124 213.06 283.817 213.5C284.524 213.927 285.064 214.493 285.437 215.2C285.81 215.907 285.997 216.667 285.997 217.48C285.997 217.627 285.99 217.773 285.977 217.92C285.977 218.067 285.977 218.233 285.977 218.42H278.077C278.117 219.18 278.29 219.813 278.597 220.32C278.917 220.813 279.31 221.187 279.777 221.44C280.257 221.693 280.764 221.82 281.297 221.82C281.99 221.82 282.57 221.66 283.037 221.34C283.504 221.02 283.844 220.587 284.057 220.04H285.717C285.45 220.96 284.937 221.727 284.177 222.34C283.43 222.94 282.47 223.24 281.297 223.24ZM281.297 214.26C280.497 214.26 279.784 214.507 279.157 215C278.544 215.48 278.19 216.187 278.097 217.12H284.337C284.297 216.227 283.99 215.527 283.417 215.02C282.844 214.513 282.137 214.26 281.297 214.26ZM291.524 223.24C290.697 223.24 290.01 223.1 289.464 222.82C288.917 222.54 288.51 222.167 288.244 221.7C287.977 221.233 287.844 220.727 287.844 220.18C287.844 219.167 288.23 218.387 289.004 217.84C289.777 217.293 290.83 217.02 292.164 217.02H294.844V216.9C294.844 216.033 294.617 215.38 294.164 214.94C293.71 214.487 293.104 214.26 292.344 214.26C291.69 214.26 291.124 214.427 290.644 214.76C290.177 215.08 289.884 215.553 289.764 216.18H288.044C288.11 215.46 288.35 214.853 288.764 214.36C289.19 213.867 289.717 213.493 290.344 213.24C290.97 212.973 291.637 212.84 292.344 212.84C293.73 212.84 294.77 213.213 295.464 213.96C296.17 214.693 296.524 215.673 296.524 216.9V223H295.024L294.924 221.22C294.644 221.78 294.23 222.26 293.684 222.66C293.15 223.047 292.43 223.24 291.524 223.24ZM291.784 221.82C292.424 221.82 292.97 221.653 293.424 221.32C293.89 220.987 294.244 220.553 294.484 220.02C294.724 219.487 294.844 218.927 294.844 218.34V218.32H292.304C291.317 218.32 290.617 218.493 290.204 218.84C289.804 219.173 289.604 219.593 289.604 220.1C289.604 220.62 289.79 221.04 290.164 221.36C290.55 221.667 291.09 221.82 291.784 221.82ZM303.604 223.24C302.657 223.24 301.804 223.027 301.044 222.6C300.297 222.16 299.704 221.553 299.264 220.78C298.837 219.993 298.624 219.08 298.624 218.04C298.624 217 298.837 216.093 299.264 215.32C299.704 214.533 300.297 213.927 301.044 213.5C301.804 213.06 302.657 212.84 303.604 212.84C304.777 212.84 305.764 213.147 306.564 213.76C307.377 214.373 307.891 215.193 308.104 216.22H306.384C306.251 215.607 305.924 215.133 305.404 214.8C304.884 214.453 304.277 214.28 303.584 214.28C303.024 214.28 302.497 214.42 302.004 214.7C301.511 214.98 301.111 215.4 300.804 215.96C300.497 216.52 300.344 217.213 300.344 218.04C300.344 218.867 300.497 219.56 300.804 220.12C301.111 220.68 301.511 221.107 302.004 221.4C302.497 221.68 303.024 221.82 303.584 221.82C304.277 221.82 304.884 221.653 305.404 221.32C305.924 220.973 306.251 220.487 306.384 219.86H308.104C307.904 220.86 307.397 221.673 306.584 222.3C305.771 222.927 304.777 223.24 303.604 223.24ZM314.91 223.24C313.964 223.24 313.124 223.027 312.39 222.6C311.657 222.16 311.077 221.553 310.65 220.78C310.237 220.007 310.03 219.093 310.03 218.04C310.03 217 310.237 216.093 310.65 215.32C311.064 214.533 311.637 213.927 312.37 213.5C313.117 213.06 313.977 212.84 314.95 212.84C315.91 212.84 316.737 213.06 317.43 213.5C318.137 213.927 318.677 214.493 319.05 215.2C319.424 215.907 319.61 216.667 319.61 217.48C319.61 217.627 319.604 217.773 319.59 217.92C319.59 218.067 319.59 218.233 319.59 218.42H311.69C311.73 219.18 311.904 219.813 312.21 220.32C312.53 220.813 312.924 221.187 313.39 221.44C313.87 221.693 314.377 221.82 314.91 221.82C315.604 221.82 316.184 221.66 316.65 221.34C317.117 221.02 317.457 220.587 317.67 220.04H319.33C319.064 220.96 318.55 221.727 317.79 222.34C317.044 222.94 316.084 223.24 314.91 223.24ZM314.91 214.26C314.11 214.26 313.397 214.507 312.77 215C312.157 215.48 311.804 216.187 311.71 217.12H317.95C317.91 216.227 317.604 215.527 317.03 215.02C316.457 214.513 315.75 214.26 314.91 214.26ZM331.65 223.24C330.717 223.24 329.877 223.027 329.13 222.6C328.383 222.173 327.79 221.573 327.35 220.8C326.923 220.013 326.71 219.093 326.71 218.04C326.71 216.987 326.93 216.073 327.37 215.3C327.81 214.513 328.403 213.907 329.15 213.48C329.91 213.053 330.757 212.84 331.69 212.84C332.623 212.84 333.463 213.053 334.21 213.48C334.957 213.907 335.543 214.513 335.97 215.3C336.41 216.073 336.63 216.987 336.63 218.04C336.63 219.093 336.41 220.013 335.97 220.8C335.53 221.573 334.93 222.173 334.17 222.6C333.423 223.027 332.583 223.24 331.65 223.24ZM331.65 221.8C332.223 221.8 332.757 221.66 333.25 221.38C333.743 221.1 334.143 220.68 334.45 220.12C334.757 219.56 334.91 218.867 334.91 218.04C334.91 217.213 334.757 216.52 334.45 215.96C334.157 215.4 333.763 214.98 333.27 214.7C332.777 214.42 332.25 214.28 331.69 214.28C331.117 214.28 330.583 214.42 330.09 214.7C329.597 214.98 329.197 215.4 328.89 215.96C328.583 216.52 328.43 217.213 328.43 218.04C328.43 218.867 328.583 219.56 328.89 220.12C329.197 220.68 329.59 221.1 330.07 221.38C330.563 221.66 331.09 221.8 331.65 221.8ZM339.506 223V214.5H338.006V213.08H339.506V211.36C339.506 210.4 339.746 209.7 340.226 209.26C340.706 208.82 341.406 208.6 342.326 208.6H343.326V210.04H342.586C342.079 210.04 341.719 210.147 341.506 210.36C341.293 210.56 341.186 210.907 341.186 211.4V213.08H343.626V214.5H341.186V223H339.506ZM350.919 223V213.08H352.439L352.559 214.52C352.879 213.987 353.306 213.573 353.839 213.28C354.372 212.987 354.972 212.84 355.639 212.84C356.426 212.84 357.099 213 357.659 213.32C358.232 213.64 358.672 214.127 358.979 214.78C359.326 214.18 359.799 213.707 360.399 213.36C361.012 213.013 361.672 212.84 362.379 212.84C363.566 212.84 364.512 213.2 365.219 213.92C365.926 214.627 366.279 215.72 366.279 217.2V223H364.619V217.38C364.619 216.353 364.412 215.58 363.999 215.06C363.586 214.54 362.992 214.28 362.219 214.28C361.419 214.28 360.752 214.593 360.219 215.22C359.699 215.833 359.439 216.713 359.439 217.86V223H357.759V217.38C357.759 216.353 357.552 215.58 357.139 215.06C356.726 214.54 356.132 214.28 355.359 214.28C354.572 214.28 353.912 214.593 353.379 215.22C352.859 215.833 352.599 216.713 352.599 217.86V223H350.919ZM369.83 210.88C369.496 210.88 369.216 210.773 368.99 210.56C368.776 210.333 368.67 210.053 368.67 209.72C368.67 209.4 368.776 209.133 368.99 208.92C369.216 208.707 369.496 208.6 369.83 208.6C370.15 208.6 370.423 208.707 370.65 208.92C370.876 209.133 370.99 209.4 370.99 209.72C370.99 210.053 370.876 210.333 370.65 210.56C370.423 210.773 370.15 210.88 369.83 210.88ZM368.99 223V213.08H370.67V223H368.99ZM373.595 223V213.08H375.115L375.215 214.86C375.535 214.233 375.995 213.74 376.595 213.38C377.195 213.02 377.875 212.84 378.635 212.84C379.808 212.84 380.742 213.2 381.435 213.92C382.142 214.627 382.495 215.72 382.495 217.2V223H380.815V217.38C380.815 215.313 379.962 214.28 378.255 214.28C377.402 214.28 376.688 214.593 376.115 215.22C375.555 215.833 375.275 216.713 375.275 217.86V223H373.595ZM389.54 223.24C388.553 223.24 387.687 223.013 386.94 222.56C386.207 222.107 385.633 221.487 385.22 220.7C384.82 219.913 384.62 219.02 384.62 218.02C384.62 217.02 384.827 216.133 385.24 215.36C385.653 214.573 386.227 213.96 386.96 213.52C387.693 213.067 388.56 212.84 389.56 212.84C390.373 212.84 391.093 213.007 391.72 213.34C392.347 213.673 392.833 214.14 393.18 214.74V208.6H394.86V223H393.34L393.18 221.36C392.86 221.84 392.4 222.273 391.8 222.66C391.2 223.047 390.447 223.24 389.54 223.24ZM389.72 221.78C390.387 221.78 390.973 221.627 391.48 221.32C392 221 392.4 220.56 392.68 220C392.973 219.44 393.12 218.787 393.12 218.04C393.12 217.293 392.973 216.64 392.68 216.08C392.4 215.52 392 215.087 391.48 214.78C390.973 214.46 390.387 214.3 389.72 214.3C389.067 214.3 388.48 214.46 387.96 214.78C387.453 215.087 387.053 215.52 386.76 216.08C386.48 216.64 386.34 217.293 386.34 218.04C386.34 218.787 386.48 219.44 386.76 220C387.053 220.56 387.453 221 387.96 221.32C388.48 221.627 389.067 221.78 389.72 221.78ZM403.432 223V214.5H401.932V213.08H403.432V211.36C403.432 210.4 403.672 209.7 404.152 209.26C404.632 208.82 405.332 208.6 406.252 208.6H407.252V210.04H406.512C406.005 210.04 405.645 210.147 405.432 210.36C405.218 210.56 405.112 210.907 405.112 211.4V213.08H407.552V214.5H405.112V223H403.432ZM413.681 223.24C412.748 223.24 411.908 223.027 411.161 222.6C410.415 222.173 409.821 221.573 409.381 220.8C408.955 220.013 408.741 219.093 408.741 218.04C408.741 216.987 408.961 216.073 409.401 215.3C409.841 214.513 410.435 213.907 411.181 213.48C411.941 213.053 412.788 212.84 413.721 212.84C414.655 212.84 415.495 213.053 416.241 213.48C416.988 213.907 417.575 214.513 418.001 215.3C418.441 216.073 418.661 216.987 418.661 218.04C418.661 219.093 418.441 220.013 418.001 220.8C417.561 221.573 416.961 222.173 416.201 222.6C415.455 223.027 414.615 223.24 413.681 223.24ZM413.681 221.8C414.255 221.8 414.788 221.66 415.281 221.38C415.775 221.1 416.175 220.68 416.481 220.12C416.788 219.56 416.941 218.867 416.941 218.04C416.941 217.213 416.788 216.52 416.481 215.96C416.188 215.4 415.795 214.98 415.301 214.7C414.808 214.42 414.281 214.28 413.721 214.28C413.148 214.28 412.615 214.42 412.121 214.7C411.628 214.98 411.228 215.4 410.921 215.96C410.615 216.52 410.461 217.213 410.461 218.04C410.461 218.867 410.615 219.56 410.921 220.12C411.228 220.68 411.621 221.1 412.101 221.38C412.595 221.66 413.121 221.8 413.681 221.8ZM420.997 223V213.08H422.517L422.657 214.98C422.964 214.327 423.431 213.807 424.057 213.42C424.684 213.033 425.457 212.84 426.377 212.84V214.6H425.917C425.331 214.6 424.791 214.707 424.297 214.92C423.804 215.12 423.411 215.467 423.117 215.96C422.824 216.453 422.677 217.133 422.677 218V223H420.997ZM434.636 227.4L437.096 222.04H436.516L432.576 213.08H434.396L437.676 220.8L441.156 213.08H442.896L436.396 227.4H434.636ZM448.252 223.24C447.318 223.24 446.478 223.027 445.732 222.6C444.985 222.173 444.392 221.573 443.952 220.8C443.525 220.013 443.312 219.093 443.312 218.04C443.312 216.987 443.532 216.073 443.972 215.3C444.412 214.513 445.005 213.907 445.752 213.48C446.512 213.053 447.358 212.84 448.292 212.84C449.225 212.84 450.065 213.053 450.812 213.48C451.558 213.907 452.145 214.513 452.572 215.3C453.012 216.073 453.232 216.987 453.232 218.04C453.232 219.093 453.012 220.013 452.572 220.8C452.132 221.573 451.532 222.173 450.772 222.6C450.025 223.027 449.185 223.24 448.252 223.24ZM448.252 221.8C448.825 221.8 449.358 221.66 449.852 221.38C450.345 221.1 450.745 220.68 451.052 220.12C451.358 219.56 451.512 218.867 451.512 218.04C451.512 217.213 451.358 216.52 451.052 215.96C450.758 215.4 450.365 214.98 449.872 214.7C449.378 214.42 448.852 214.28 448.292 214.28C447.718 214.28 447.185 214.42 446.692 214.7C446.198 214.98 445.798 215.4 445.492 215.96C445.185 216.52 445.032 217.213 445.032 218.04C445.032 218.867 445.185 219.56 445.492 220.12C445.798 220.68 446.192 221.1 446.672 221.38C447.165 221.66 447.692 221.8 448.252 221.8ZM459.188 223.24C458.014 223.24 457.081 222.887 456.388 222.18C455.694 221.46 455.348 220.36 455.348 218.88V213.08H457.028V218.7C457.028 220.767 457.874 221.8 459.568 221.8C460.434 221.8 461.148 221.493 461.708 220.88C462.281 220.253 462.568 219.367 462.568 218.22V213.08H464.248V223H462.728L462.608 221.22C462.301 221.847 461.841 222.34 461.228 222.7C460.628 223.06 459.948 223.24 459.188 223.24ZM467.593 223.1C467.259 223.1 466.979 222.993 466.753 222.78C466.539 222.553 466.433 222.28 466.433 221.96C466.433 221.64 466.539 221.373 466.753 221.16C466.979 220.933 467.259 220.82 467.593 220.82C467.913 220.82 468.179 220.933 468.393 221.16C468.619 221.373 468.733 221.64 468.733 221.96C468.733 222.28 468.619 222.553 468.393 222.78C468.179 222.993 467.913 223.1 467.593 223.1Z" fill="#828282"/>
<rect x="37" y="252" width="660" height="304" rx="16" fill="#1A1A1A"/>
<path d="M64.1382 419.432L111.412 384.576L129.385 395.648L196.687 344.888L251.01 437.906L299.549 384.576L359.657 395.648L382.252 344.888L418.156 339.081L504.157 366.084L573.69 279L667.691 302.342" stroke="#003FDB" stroke-width="2" stroke-linecap="round" stroke-linejoin="round"/>
<path d="M66.1981 463.976L115.049 415.459L131.448 448.496L196.467 411.679L253.078 476L301.619 441.29L361.73 448.496L384.326 415.459L420.232 411.679L515.626 448.496L600.301 362.807L649.152 415.459" stroke="#4F4F4F" stroke-width="2" stroke-linecap="round" stroke-linejoin="round" stroke-dasharray="8 8"/>
</g>
<rect x="0.5" y="0.5" width="733" height="495" rx="29.5" stroke="#333333"/>
<defs>
<clipPath id="clip0_3_1285">
<rect width="734" height="496" rx="30" fill="white"/>
</clipPath>
</defs>
</svg>
