<svg width="85" height="18" viewBox="0 0 85 18" fill="none" xmlns="http://www.w3.org/2000/svg">
<g clip-path="url(#clip0_4_3161)">
<path d="M14.1927 8.57915H12.1162C11.5219 8.57915 10.952 8.32996 10.5317 7.88636C10.1114 7.44277 9.87518 6.84108 9.87493 6.21362V1.64113C9.87147 1.21404 10.0271 0.802618 10.3084 0.495616C10.5896 0.188615 10.9738 0.0106304 11.3782 5.66412e-05C11.5781 -0.00172011 11.7763 0.03832 11.9614 0.117883C12.1465 0.197446 12.3149 0.314945 12.4568 0.463597C12.5987 0.612248 12.7113 0.789123 12.7881 0.983974C12.8648 1.17883 12.9043 1.38779 12.9042 1.59884V6.65176C12.901 6.94738 12.9575 7.24032 13.07 7.51105C13.1825 7.78177 13.3484 8.02407 13.5566 8.22173C13.7367 8.39567 13.9555 8.51863 14.1927 8.57915Z" fill="#A3DC2F"/>
<path d="M15.5785 8.45418C16.551 8.45418 17.3393 7.6218 17.3393 6.59501C17.3393 5.56822 16.551 4.73584 15.5785 4.73584C14.6061 4.73584 13.8177 5.56822 13.8177 6.59501C13.8177 7.6218 14.6061 8.45418 15.5785 8.45418Z" fill="#A3DC2F"/>
<path d="M9.87494 14.6773V12.4837C9.87518 11.8563 10.1114 11.2546 10.5317 10.811C10.952 10.3674 11.5219 10.1182 12.1162 10.1182H16.4467C16.8511 10.1143 17.2408 10.2786 17.5315 10.5757C17.8221 10.8727 17.9904 11.2785 18 11.7055C18.0016 11.9165 17.9637 12.1258 17.8884 12.3213C17.813 12.5168 17.7017 12.6946 17.5609 12.8444C17.4202 12.9942 17.2527 13.1131 17.0681 13.1941C16.8836 13.2752 16.6857 13.3169 16.4858 13.3168H11.7003C11.4204 13.3135 11.1429 13.3732 10.8866 13.492C10.6302 13.6108 10.4007 13.7859 10.2134 14.0057C10.0491 14.1961 9.9327 14.427 9.87494 14.6773Z" fill="#A3DC2F"/>
<path d="M11.754 18.0001C12.7264 18.0001 13.5148 17.1677 13.5148 16.1409C13.5148 15.1141 12.7264 14.2817 11.754 14.2817C10.7815 14.2817 9.99323 15.1141 9.99323 16.1409C9.99323 17.1677 10.7815 18.0001 11.754 18.0001Z" fill="#A3DC2F"/>
<path d="M3.80731 9.4209H5.88474C6.479 9.42115 7.04883 9.67059 7.46894 10.1144C7.88906 10.5581 8.12506 11.1599 8.12506 11.7874V16.3599C8.12506 17.2448 7.46079 17.9933 6.62272 18C6.42277 18.0019 6.22445 17.9619 6.03921 17.8824C5.85398 17.8029 5.6855 17.6854 5.54352 17.5368C5.40154 17.3881 5.28887 17.2112 5.21203 17.0163C5.13518 16.8214 5.09568 16.6123 5.09581 16.4012V11.3483C5.09918 11.0528 5.04272 10.7599 4.9302 10.4893C4.81768 10.2187 4.6517 9.97664 4.44337 9.77928C4.2633 9.6052 4.04452 9.48193 3.80731 9.4209Z" fill="#A3DC2F"/>
<path d="M2.42141 13.2642C3.39386 13.2642 4.18218 12.4319 4.18218 11.4051C4.18218 10.3783 3.39386 9.5459 2.42141 9.5459C1.44897 9.5459 0.660645 10.3783 0.660645 11.4051C0.660645 12.4319 1.44897 13.2642 2.42141 13.2642Z" fill="#A3DC2F"/>
<path d="M8.12417 3.32373V5.51629C8.12417 6.14375 7.88816 6.74554 7.46805 7.18931C7.04793 7.63308 6.4781 7.88253 5.88385 7.88278H1.55427C1.14978 7.88644 0.760137 7.72206 0.469384 7.42513C0.178632 7.12819 0.0100677 6.72249 5.36285e-05 6.29552C-0.00162908 6.08448 0.0363029 5.87517 0.111655 5.67969C0.187006 5.48422 0.298287 5.30643 0.439071 5.15662C0.579855 5.0068 0.747357 4.88793 0.931895 4.80684C1.11643 4.72576 1.31435 4.6841 1.51423 4.68423H6.30425C6.58423 4.68762 6.86167 4.62792 7.11807 4.50912C7.37447 4.39033 7.60391 4.21518 7.79112 3.99534C7.95388 3.80462 8.06843 3.57362 8.12417 3.32373Z" fill="#A3DC2F"/>
<path d="M6.246 3.71834C7.21845 3.71834 8.00677 2.88596 8.00677 1.85917C8.00677 0.832379 7.21845 0 6.246 0C5.27355 0 4.48523 0.832379 4.48523 1.85917C4.48523 2.88596 5.27355 3.71834 6.246 3.71834Z" fill="#A3DC2F"/>
<path d="M27.4347 16V1.45455H36.7528V3.66335H30.0696V7.61222H36.1136V9.82102H30.0696V16H27.4347ZM39.0398 16V5.09091H41.6108V16H39.0398ZM40.3324 3.54261C39.9252 3.54261 39.5748 3.40767 39.2812 3.13778C38.9877 2.86316 38.8409 2.53409 38.8409 2.15057C38.8409 1.76231 38.9877 1.43324 39.2812 1.16335C39.5748 0.88873 39.9252 0.75142 40.3324 0.75142C40.7443 0.75142 41.0947 0.88873 41.3835 1.16335C41.6771 1.43324 41.8239 1.76231 41.8239 2.15057C41.8239 2.53409 41.6771 2.86316 41.3835 3.13778C41.0947 3.40767 40.7443 3.54261 40.3324 3.54261ZM46.8256 9.60795V16H44.2546V5.09091H46.712V6.9446H46.8398C47.0908 6.33381 47.4909 5.84848 48.0401 5.48864C48.5941 5.12879 49.2783 4.94886 50.0927 4.94886C50.8455 4.94886 51.5013 5.10985 52.06 5.43182C52.6235 5.75379 53.0591 6.22017 53.3668 6.83097C53.6793 7.44176 53.8332 8.18276 53.8285 9.05398V16H51.2575V9.4517C51.2575 8.72254 51.0681 8.15199 50.6893 7.74006C50.3152 7.32812 49.7968 7.12216 49.1339 7.12216C48.6841 7.12216 48.284 7.22159 47.9336 7.42045C47.5879 7.61458 47.3157 7.89631 47.1168 8.26562C46.9227 8.63494 46.8256 9.08239 46.8256 9.60795ZM56.5558 16V1.45455H62.1239C63.1751 1.45455 64.0487 1.62026 64.7447 1.9517C65.4454 2.27841 65.9686 2.72585 66.3143 3.29403C66.6647 3.86222 66.8398 4.50616 66.8398 5.22585C66.8398 5.81771 66.7262 6.32434 66.4989 6.74574C66.2717 7.1624 65.9663 7.50095 65.5827 7.76136C65.1992 8.02178 64.7707 8.20881 64.2972 8.32244V8.46449C64.8133 8.4929 65.3081 8.65151 65.7816 8.94034C66.2598 9.22443 66.6504 9.62689 66.9535 10.1477C67.2565 10.6686 67.408 11.2983 67.408 12.0369C67.408 12.7898 67.2257 13.4669 66.8612 14.0682C66.4966 14.6648 65.9473 15.1359 65.2134 15.4815C64.4795 15.8272 63.5562 16 62.4435 16H56.5558ZM59.1907 13.7983H62.0245C62.9809 13.7983 63.6699 13.616 64.0913 13.2514C64.5174 12.8821 64.7305 12.4086 64.7305 11.831C64.7305 11.4001 64.6239 11.0118 64.4109 10.6662C64.1978 10.3158 63.8948 10.0412 63.5018 9.84233C63.1088 9.63873 62.64 9.53693 62.0955 9.53693H59.1907V13.7983ZM59.1907 7.64062H61.7972C62.2518 7.64062 62.6613 7.55777 63.0259 7.39205C63.3905 7.22159 63.677 6.98248 63.8853 6.67472C64.0984 6.36222 64.2049 5.9929 64.2049 5.56676C64.2049 5.00331 64.006 4.5393 63.6083 4.17472C63.2153 3.81013 62.6306 3.62784 61.854 3.62784H59.1907V7.64062ZM69.5866 16V5.09091H72.1577V16H69.5866ZM70.8793 3.54261C70.4721 3.54261 70.1217 3.40767 69.8281 3.13778C69.5346 2.86316 69.3878 2.53409 69.3878 2.15057C69.3878 1.76231 69.5346 1.43324 69.8281 1.16335C70.1217 0.88873 70.4721 0.75142 70.8793 0.75142C71.2912 0.75142 71.6416 0.88873 71.9304 1.16335C72.224 1.43324 72.3707 1.76231 72.3707 2.15057C72.3707 2.53409 72.224 2.86316 71.9304 3.13778C71.6416 3.40767 71.2912 3.54261 70.8793 3.54261ZM74.6594 16V14.3665L80.2844 7.31392V7.22159H74.8441V5.09091H83.4308V6.84517L78.0756 13.777V13.8693H83.6154V16H74.6594Z" fill="#FBFBFB"/>
</g>
<defs>
<clipPath id="clip0_4_3161">
<rect width="85" height="18" fill="white"/>
</clipPath>
</defs>
</svg>
